<svg width="52" height="52" viewBox="0 0 52 52" fill="none" xmlns="http://www.w3.org/2000/svg">
<path d="M51.518 19.3908V21.2786C51.514 24.4729 50.3544 27.5579 48.2534 29.9638C46.1523 32.3698 43.2516 33.9344 40.087 34.3686C41.3788 36.0215 42.0799 38.0594 42.0787 40.1572V49.5965C42.0787 50.0972 41.8798 50.5773 41.5258 50.9314C41.1717 51.2854 40.6915 51.4843 40.1909 51.4843H25.088C24.5873 51.4843 24.1071 51.2854 23.7531 50.9314C23.3991 50.5773 23.2002 50.0972 23.2002 49.5965V45.8208H17.5366C15.0331 45.8208 12.6322 44.8263 10.862 43.0561C9.09181 41.2859 8.09732 38.8849 8.09732 36.3815C8.09732 34.8794 7.50062 33.4389 6.4385 32.3767C5.37637 31.3146 3.93582 30.7179 2.43375 30.7179C1.93306 30.7179 1.45288 30.519 1.09884 30.165C0.744797 29.8109 0.545898 29.3308 0.545898 28.8301C0.545898 28.3294 0.744797 27.8492 1.09884 27.4951C1.45288 27.1411 1.93306 26.9422 2.43375 26.9422C3.67334 26.9422 4.90078 27.1864 6.04601 27.6607C7.19123 28.1351 8.23181 28.8304 9.10833 29.7069C9.98485 30.5834 10.6801 31.624 11.1545 32.7692C11.6289 33.9145 11.873 35.1419 11.873 36.3815C11.873 37.8836 12.4697 39.3241 13.5318 40.3862C14.594 41.4484 16.0345 42.0451 17.5366 42.0451H23.2002V40.1572C23.1989 38.0594 23.9001 36.0215 25.1918 34.3686C22.0272 33.9344 19.1266 32.3698 17.0255 29.9638C14.9244 27.5579 13.7649 24.4729 13.7609 21.2786V19.3908C13.7844 17.0446 14.4092 14.7436 15.5756 12.7078C14.9985 10.8463 14.8134 8.88554 15.032 6.94901C15.2505 5.01247 15.8678 3.14221 16.8452 1.45617C17.0109 1.16911 17.2493 0.930754 17.5364 0.765057C17.8234 0.599359 18.1491 0.512163 18.4805 0.512238C20.6794 0.507635 22.8489 1.01739 24.8157 2.00078C26.7825 2.98416 28.492 4.41391 29.8077 6.1758H35.4712C36.7869 4.41391 38.4964 2.98416 40.4632 2.00078C42.4299 1.01739 44.5994 0.507635 46.7983 0.512238C47.1298 0.512163 47.4554 0.599359 47.7425 0.765057C48.0296 0.930754 48.268 1.16911 48.4337 1.45617C49.4112 3.14217 50.0285 5.01254 50.2466 6.94916C50.4647 8.88578 50.2789 10.8466 49.7009 12.7078C50.8695 14.7428 51.4952 17.0442 51.518 19.3908Z" fill="white"/>
</svg>
