<svg width="48" height="49" viewBox="0 0 48 49" fill="none" xmlns="http://www.w3.org/2000/svg">
<path d="M23.9805 16.5374C19.576 16.5374 15.9816 20.1318 15.9816 24.5363C15.9816 28.9408 19.576 32.5352 23.9805 32.5352C28.385 32.5352 31.9794 28.9408 31.9794 24.5363C31.9794 20.1318 28.385 16.5374 23.9805 16.5374ZM47.9712 24.5363C47.9712 21.2239 48.0012 17.9416 47.8152 14.6352C47.6292 10.7948 46.7531 7.38637 43.9448 4.57805C41.1305 1.76373 37.7281 0.893628 33.8876 0.707607C30.5753 0.521586 27.2929 0.55159 23.9865 0.55159C20.6741 0.55159 17.3918 0.521586 14.0854 0.707607C10.2449 0.893628 6.83656 1.76973 4.02824 4.57805C1.21392 7.39237 0.343824 10.7948 0.157803 14.6352C-0.0282186 17.9476 0.00178487 21.2299 0.00178487 24.5363C0.00178487 27.8427 -0.0282186 31.1311 0.157803 34.4374C0.343824 38.2779 1.21992 41.6863 4.02824 44.4946C6.84256 47.3089 10.2449 48.179 14.0854 48.365C17.3978 48.551 20.6801 48.521 23.9865 48.521C27.2989 48.521 30.5813 48.551 33.8876 48.365C37.7281 48.179 41.1365 47.3029 43.9448 44.4946C46.7591 41.6803 47.6292 38.2779 47.8152 34.4374C48.0072 31.1311 47.9712 27.8487 47.9712 24.5363ZM23.9805 36.8437C17.1697 36.8437 11.6731 31.3471 11.6731 24.5363C11.6731 17.7255 17.1697 12.2289 23.9805 12.2289C30.7913 12.2289 36.2879 17.7255 36.2879 24.5363C36.2879 31.3471 30.7913 36.8437 23.9805 36.8437ZM36.792 14.5992C35.2018 14.5992 33.9176 13.315 33.9176 11.7249C33.9176 10.1347 35.2018 8.85053 36.792 8.85053C38.3821 8.85053 39.6663 10.1347 39.6663 11.7249C39.6668 12.1025 39.5927 12.4764 39.4485 12.8254C39.3042 13.1743 39.0925 13.4914 38.8255 13.7584C38.5585 14.0254 38.2414 14.2371 37.8925 14.3814C37.5435 14.5256 37.1696 14.5997 36.792 14.5992Z" fill="white"/>
</svg>
