<svg width="52" height="49" viewBox="0 0 52 49" fill="none" xmlns="http://www.w3.org/2000/svg">
<path d="M51.4783 29.9375V48.8299H40.5254V31.2023C40.5254 26.773 38.9405 23.7518 34.9772 23.7518C31.951 23.7518 30.1485 25.7898 29.3574 27.7587C29.0681 28.4628 28.9938 29.4433 28.9938 30.4291V48.8299H18.0358C18.0358 48.8299 18.1843 18.9769 18.0358 15.8815H28.9938V20.5515L28.9221 20.659H28.9938V20.5515C30.4481 18.3112 33.0468 15.1083 38.8663 15.1083C46.0735 15.1083 51.4783 19.8192 51.4783 29.9375ZM6.57591 0C2.8302 0 0.377441 2.45788 0.377441 5.69153C0.377441 8.85349 2.75851 11.3856 6.43253 11.3856H6.50422C10.3267 11.3856 12.7001 8.85349 12.7001 5.69153C12.6336 2.45788 10.3267 0 6.57591 0ZM1.02776 48.8299H11.9807V15.8815H1.02776V48.8299Z" fill="white"/>
</svg>
