<svg width="63" height="47" viewBox="0 0 63 47" fill="none" xmlns="http://www.w3.org/2000/svg">
<path d="M62.3942 6.28375C60.1092 7.18305 57.6225 7.83027 55.0611 8.08235C57.7204 6.64099 59.7118 4.36388 60.6618 1.67825C58.1664 3.03257 55.4327 3.98225 52.5819 4.48515C51.3904 3.32306 49.9494 2.39728 48.3486 1.76551C46.7478 1.13373 45.0215 0.809502 43.2773 0.813017C36.2205 0.813017 30.5452 6.03167 30.5452 12.4358C30.5452 13.3351 30.6647 14.2344 30.8588 15.0996C20.2923 14.5954 10.8682 9.98995 4.60295 2.93863C3.46135 4.71758 2.86311 6.74311 2.87047 8.80451C2.87047 12.8377 5.1182 16.394 8.54581 18.4856C6.52587 18.413 4.55323 17.9065 2.78833 17.0072V17.1503C2.78833 22.7981 7.16431 27.4786 12.9965 28.555C11.9014 28.8145 10.7749 28.9473 9.64354 28.9502C8.81464 28.9502 8.03055 28.8752 7.23899 28.773C8.85198 33.3785 13.5491 36.7236 19.1422 36.8326C14.7663 39.9597 9.28509 41.7992 3.33346 41.7992C2.2656 41.7992 1.27989 41.7652 0.256836 41.6561C5.9023 44.9604 12.6007 46.868 19.8143 46.868C43.2325 46.868 56.0468 29.1682 56.0468 13.8052C56.0468 13.301 56.0468 12.7968 56.0095 12.2927C58.4887 10.6372 60.6618 8.5865 62.3942 6.28375Z" fill="white"/>
</svg>
