<svg width="400" height="280" viewBox="0 0 424 379" fill="none" xmlns="http://www.w3.org/2000/svg">
<path d="M424 93.5C424 168 403.5 393 158 374C43.0001 280 0.500122 298.828 0.500122 213.5C100.312 114.5 -48.3877 18.0001 100.313 18.0001C245.5 -17 392.5 -2.99999 424 93.5Z" fill="#FF90E8"/>
<g clip-path="url(#clip0_24_4)">
<path d="M203.033 89.7381C211.516 89.7381 218.392 82.8478 218.392 74.3481C218.392 65.8484 211.516 58.958 203.033 58.958C194.55 58.958 187.673 65.8484 187.673 74.3481C187.673 82.8478 194.55 89.7381 203.033 89.7381Z" fill="#FD6584"/>
<path d="M237.409 67.0606C236.976 65.6375 236.137 64.3723 234.995 63.4209C233.853 62.4695 232.459 61.8734 230.983 61.706C230.949 61.7031 230.914 61.7031 230.88 61.706C230.838 61.693 230.796 61.6834 230.753 61.6771C225.61 61.0085 219.892 62.6339 216.044 66.173C214.615 67.466 213.473 69.0447 212.69 70.8072C211.977 69.8308 211.037 69.0434 209.951 68.5131C208.866 67.9828 207.667 67.7256 206.46 67.7638C204.904 67.8669 203.416 68.4486 202.202 69.4296C200.987 70.4105 200.104 71.743 199.672 73.2453C199.625 73.4288 199.638 73.6228 199.709 73.7983C199.781 73.9739 199.907 74.1216 200.069 74.2194C200.532 74.6159 201.082 74.8964 201.674 75.0379C202.945 75.3088 204.228 75.5566 205.511 75.7814C208.019 76.2195 210.541 76.5749 213.076 76.8477C214.75 77.0264 216.427 77.1686 218.109 77.2743C221.584 77.4933 225.075 77.5452 228.556 77.4357C230.281 77.378 231.938 77.3204 233.514 76.5595C234.663 75.9936 235.644 75.1373 236.362 74.0753C237.037 73.0537 237.481 71.8963 237.662 70.6843C237.843 69.4724 237.756 68.2355 237.409 67.0606Z" fill="#E6E6E6"/>
<path d="M205.81 89.4822C205.781 88.8373 205.673 88.1985 205.488 87.5801C205.053 86.1571 204.212 84.8923 203.07 83.9411C201.927 82.9899 200.533 82.3936 199.057 82.2255C199.024 82.2226 198.992 82.2226 198.959 82.2255C198.916 82.2131 198.871 82.2035 198.827 82.1966C195.98 81.8473 193.092 82.1448 190.376 83.067C186.2 84.4676 182.536 87.2919 180.77 91.3266C180.055 90.3496 179.114 89.5619 178.028 89.0316C176.941 88.5012 175.742 88.2444 174.534 88.2833C172.977 88.3864 171.49 88.9681 170.275 89.949C169.06 90.93 168.177 92.2625 167.746 93.7648C167.701 93.9483 167.715 94.1414 167.787 94.3163C167.858 94.4912 167.983 94.6391 168.143 94.7389C168.606 95.1343 169.156 95.4147 169.748 95.5573C171.025 95.8282 172.302 96.0761 173.59 96.3009C176.099 96.7389 178.618 97.0944 181.149 97.3672C186.291 97.9203 191.466 98.1168 196.635 97.9551C198.355 97.8975 200.017 97.8398 201.594 97.079C202.741 96.5128 203.72 95.6565 204.435 94.5948C205.444 93.0891 205.927 91.2917 205.81 89.4822Z" fill="#E6E6E6"/>
<path d="M319.53 283.701H305.528V64.6899C304.585 63.9925 303.636 63.3008 302.675 62.6264C302.485 62.4938 302.295 62.3613 302.105 62.2287C291.031 54.4674 279.052 48.0914 266.434 43.2424L263.719 80.7654L263.719 80.7677H246.249V36.954C245.11 36.6715 243.971 36.4064 242.82 36.1585V80.7677H176.85V35C175.705 35.2133 174.561 35.4323 173.422 35.6686V80.7677H155.376L155.376 80.7654L152.529 41.4152C140.249 45.6802 128.514 51.3796 117.565 58.3957C117.185 58.6378 116.806 58.8799 116.426 59.1335C115.661 59.6292 114.896 60.1364 114.142 60.6494V283.701H94.4282C91.906 283.699 89.4219 284.318 87.1938 285.502C84.9656 286.686 83.0614 288.4 81.6481 290.493C80.2348 292.586 79.3555 294.995 79.0874 297.508C78.8193 300.021 79.1705 302.561 80.1102 304.906C80.3922 305.616 80.7288 306.302 81.1169 306.958C81.6182 307.815 82.2 308.622 82.8542 309.368C84.2993 311.018 86.0794 312.34 88.0753 313.245C90.0713 314.151 92.2372 314.619 94.4282 314.619H319.53C323.622 314.619 327.546 312.99 330.439 310.091C333.333 307.192 334.958 303.26 334.958 299.16C334.958 295.06 333.333 291.128 330.439 288.229C327.546 285.33 323.622 283.701 319.53 283.701ZM259.957 132.861L249.067 283.701H170.028L159.138 132.861H259.957ZM263.472 84.2024L260.785 121.412H246.249V84.2024H263.472ZM242.82 84.2024V121.412H216.57C216.044 120.378 215.244 119.511 214.257 118.904C213.27 118.298 212.135 117.977 210.977 117.977H207.549C206.391 117.977 205.256 118.298 204.269 118.904C203.282 119.511 202.482 120.378 201.956 121.412H176.85V84.2024H242.82ZM173.422 121.412H158.31L155.624 84.2024H173.422V121.412Z" fill="#F2F2F2"/>
<path d="M80.3621 308.628C85.3595 314.561 90.7647 320.137 96.5382 325.315L314.892 325.891C320.666 320.713 326.071 315.138 331.068 309.204L80.3621 308.628Z" fill="#3F3D56"/>
<path d="M190.632 252.828V311.942H231.964V252.828C231.965 252.403 231.829 251.988 231.578 251.646C231.326 251.304 230.971 251.051 230.566 250.926C230.375 250.862 230.175 250.831 229.974 250.833H192.628C192.366 250.833 192.107 250.884 191.865 250.984C191.623 251.084 191.403 251.231 191.218 251.416C191.032 251.601 190.885 251.821 190.785 252.063C190.684 252.306 190.632 252.565 190.632 252.828ZM206.762 273.14C206.773 271.974 207.243 270.861 208.069 270.04C208.895 269.22 210.011 268.76 211.174 268.76C212.337 268.76 213.453 269.22 214.28 270.04C215.106 270.861 215.576 271.974 215.586 273.14V279.999C215.581 281.167 215.113 282.286 214.286 283.11C213.459 283.934 212.341 284.397 211.174 284.397C210.008 284.397 208.889 283.934 208.062 283.11C207.236 282.286 206.768 281.167 206.762 279.999V273.14Z" fill="#2F2E41"/>
<path d="M190.506 310.052V315.752C190.506 316.048 190.624 316.331 190.831 316.54C191.039 316.749 191.321 316.868 191.616 316.87H230.98C231.275 316.869 231.558 316.751 231.766 316.541C231.974 316.331 232.091 316.048 232.09 315.752V310.052H190.506Z" fill="#3F3D56"/>
<path d="M125.611 163.764V271.699C125.612 273.074 126.158 274.393 127.129 275.366C128.1 276.338 129.416 276.885 130.789 276.886H290.421C291.794 276.885 293.11 276.338 294.081 275.366C295.051 274.393 295.597 273.074 295.598 271.699V163.764C295.595 162.39 295.048 161.073 294.078 160.101C293.108 159.13 291.793 158.584 290.421 158.582H130.789C129.417 158.584 128.102 159.13 127.132 160.101C126.161 161.073 125.615 162.39 125.611 163.764Z" fill="#3F3D56"/>
<path d="M129.356 165.107V270.367C129.358 271.102 129.65 271.807 130.168 272.326C130.687 272.846 131.39 273.138 132.123 273.14H289.092C289.826 273.138 290.529 272.846 291.047 272.326C291.566 271.807 291.858 271.102 291.859 270.367V165.107C291.859 164.371 291.568 163.665 291.049 163.144C290.53 162.624 289.826 162.33 289.092 162.329H132.123C131.389 162.33 130.685 162.624 130.166 163.144C129.648 163.665 129.356 164.371 129.356 165.107Z" fill="#6C63FF"/>
<path d="M161.363 318.213C161.523 318.414 161.726 318.576 161.957 318.687C162.188 318.798 162.442 318.854 162.698 318.853H256.084C256.34 318.853 256.592 318.795 256.822 318.685C257.053 318.575 257.256 318.415 257.417 318.216C257.578 318.017 257.692 317.785 257.752 317.536C257.812 317.288 257.816 317.029 257.764 316.778L256.314 309.879C256.254 309.597 256.125 309.336 255.938 309.117C255.751 308.899 255.513 308.73 255.244 308.628C255.05 308.552 254.843 308.512 254.635 308.513H164.142C163.933 308.512 163.726 308.552 163.532 308.628C163.264 308.73 163.025 308.899 162.838 309.117C162.651 309.336 162.522 309.597 162.462 309.879L161.012 316.778C160.961 317.028 160.966 317.287 161.026 317.535C161.087 317.784 161.202 318.015 161.363 318.213Z" fill="#2F2E41"/>
<path d="M164.142 309.954C164.113 309.954 164.085 309.958 164.059 309.969C164.013 309.984 163.972 310.011 163.939 310.046C163.906 310.082 163.882 310.125 163.87 310.172L162.42 317.075C162.412 317.115 162.413 317.156 162.423 317.195C162.433 317.235 162.452 317.272 162.478 317.303L162.484 317.311C162.509 317.343 162.542 317.37 162.579 317.387C162.616 317.405 162.657 317.413 162.698 317.412H256.084C256.125 317.413 256.165 317.404 256.202 317.386C256.239 317.369 256.272 317.343 256.297 317.311C256.324 317.28 256.344 317.244 256.355 317.204C256.365 317.164 256.366 317.123 256.358 317.082L254.907 310.175C254.896 310.13 254.875 310.088 254.844 310.053C254.814 310.018 254.775 309.991 254.732 309.974C254.701 309.961 254.668 309.954 254.635 309.954H164.142Z" fill="white"/>
<path d="M137.17 176.829H284.045C284.198 176.825 284.343 176.762 284.45 176.653C284.557 176.543 284.617 176.396 284.617 176.243C284.617 176.09 284.557 175.944 284.45 175.834C284.343 175.725 284.198 175.662 284.045 175.658H137.17C137.017 175.662 136.872 175.725 136.765 175.834C136.659 175.944 136.599 176.09 136.599 176.243C136.599 176.396 136.659 176.543 136.765 176.653C136.872 176.762 137.017 176.825 137.17 176.829Z" fill="#3F3D56"/>
<path d="M274.047 172.67C275.938 172.67 277.47 171.1 277.47 169.164C277.47 167.227 275.938 165.658 274.047 165.658C272.157 165.658 270.624 167.227 270.624 169.164C270.624 171.1 272.157 172.67 274.047 172.67Z" fill="#3F3D56"/>
<path d="M262.222 172.67C264.113 172.67 265.645 171.1 265.645 169.164C265.645 167.227 264.113 165.658 262.222 165.658C260.332 165.658 258.799 167.227 258.799 169.164C258.799 171.1 260.332 172.67 262.222 172.67Z" fill="#3F3D56"/>
<path d="M250.398 172.67C252.288 172.67 253.821 171.1 253.821 169.164C253.821 167.227 252.288 165.658 250.398 165.658C248.507 165.658 246.975 167.227 246.975 169.164C246.975 171.1 248.507 172.67 250.398 172.67Z" fill="#3F3D56"/>
<path d="M143.664 167.164C143.663 167.247 143.679 167.329 143.71 167.406C143.742 167.483 143.788 167.553 143.846 167.612C143.904 167.671 143.973 167.717 144.05 167.749C144.126 167.781 144.208 167.798 144.291 167.798H152.689C152.855 167.795 153.013 167.726 153.129 167.607C153.245 167.488 153.31 167.328 153.31 167.162C153.31 166.995 153.245 166.835 153.129 166.716C153.013 166.597 152.855 166.529 152.689 166.525H144.291C144.123 166.527 143.963 166.595 143.845 166.715C143.728 166.835 143.663 166.996 143.664 167.164Z" fill="#3F3D56"/>
<path d="M143.664 169.557C143.663 169.639 143.679 169.722 143.71 169.798C143.742 169.875 143.788 169.945 143.846 170.004C143.904 170.063 143.973 170.109 144.05 170.141C144.126 170.174 144.208 170.19 144.291 170.191H152.689C152.855 170.187 153.014 170.118 153.13 169.999C153.246 169.88 153.311 169.72 153.311 169.554C153.311 169.387 153.246 169.227 153.13 169.108C153.014 168.989 152.855 168.92 152.689 168.917H144.291C144.123 168.919 143.963 168.987 143.845 169.107C143.728 169.227 143.663 169.389 143.664 169.557Z" fill="#3F3D56"/>
<path d="M143.664 171.943C143.663 172.111 143.728 172.272 143.845 172.392C143.963 172.512 144.123 172.58 144.291 172.582H152.689C152.855 172.579 153.013 172.51 153.129 172.391C153.245 172.272 153.31 172.112 153.31 171.946C153.31 171.779 153.245 171.619 153.129 171.5C153.013 171.381 152.855 171.312 152.689 171.309H144.291C144.208 171.309 144.126 171.326 144.05 171.358C143.973 171.39 143.904 171.437 143.846 171.495C143.788 171.554 143.742 171.624 143.71 171.701C143.679 171.778 143.663 171.86 143.664 171.943Z" fill="#3F3D56"/>
<path d="M262.161 194.693H159.054C157.7 194.695 156.401 195.235 155.443 196.194C154.486 197.154 153.947 198.455 153.945 199.812V250.095C153.947 251.452 154.486 252.753 155.443 253.713C156.401 254.673 157.7 255.213 159.054 255.214H262.161C263.515 255.213 264.814 254.673 265.772 253.713C266.73 252.753 267.268 251.452 267.27 250.095V199.812C267.268 198.455 266.729 197.154 265.772 196.194C264.814 195.235 263.515 194.695 262.161 194.693ZM266.119 199.812V214.483H229.878V195.846H262.161C263.21 195.847 264.217 196.266 264.959 197.009C265.701 197.753 266.118 198.761 266.119 199.812ZM192.487 234.272V215.635H228.728V234.272H192.487ZM228.728 235.425V254.062H192.487V235.425H228.728ZM191.337 234.272H155.096V215.635H191.337V234.272ZM192.487 214.483V195.846H228.728V214.483H192.487ZM229.878 215.635H266.119V234.272H229.878V215.635ZM159.054 195.846H191.337V214.483H155.096V199.812C155.097 198.761 155.514 197.753 156.257 197.009C156.999 196.266 158.005 195.847 159.054 195.846ZM155.096 250.095V235.425H191.337V254.062H159.054C158.005 254.06 156.999 253.642 156.256 252.898C155.514 252.155 155.097 251.147 155.096 250.095ZM262.161 254.062H229.879V235.425H266.119V250.095C266.118 251.147 265.701 252.155 264.959 252.898C264.217 253.642 263.21 254.06 262.161 254.062Z" fill="#3F3D56"/>
<path d="M205.367 207.459C204.452 205.943 203.368 204.324 201.67 203.829C199.704 203.256 197.684 204.395 195.97 205.519C190.846 208.88 185.912 212.523 181.189 216.431L181.195 216.489L192.224 215.727C194.881 215.544 197.628 215.335 199.976 214.076C200.867 213.598 201.735 212.96 202.744 212.915C203.998 212.86 205.092 213.738 205.951 214.655C211.034 220.078 212.505 228.372 218.208 233.137C214.612 224.251 210.318 215.665 205.367 207.459Z" fill="white"/>
<path d="M236.613 253.462C236.051 252.751 235.821 252.584 235.267 251.866C230.752 246.015 226.508 239.967 222.536 233.721C219.838 229.479 217.274 225.155 214.843 220.75C213.686 218.656 212.561 216.546 211.467 214.418C210.618 212.769 209.788 211.11 208.978 209.441C208.746 208.964 208.52 208.485 208.296 208.005C207.768 206.877 207.25 205.743 206.693 204.629C206.118 203.292 205.237 202.11 204.122 201.177C203.591 200.773 202.958 200.529 202.294 200.473C201.359 200.478 200.444 200.741 199.648 201.232C193.625 204.405 188.002 208.29 182.902 212.803C177.793 217.299 173.227 222.377 169.296 227.936C169.176 228.108 168.891 227.944 169.013 227.77C169.491 227.093 169.978 226.423 170.475 225.761C176.654 217.527 184.23 210.447 192.857 204.843C194.308 203.9 195.787 203.002 197.293 202.148C198.052 201.717 198.814 201.292 199.589 200.893C200.332 200.457 201.166 200.198 202.025 200.137C204.98 200.091 206.51 203.445 207.561 205.701C207.892 206.411 208.226 207.119 208.564 207.825C209.843 210.504 211.17 213.159 212.547 215.789C213.397 217.413 214.266 219.028 215.153 220.633C217.913 225.631 220.847 230.528 223.955 235.324C228.071 241.677 232.155 247.289 236.845 253.229C236.974 253.394 236.743 253.628 236.613 253.462Z" fill="white"/>
<path d="M182.61 211.147C182.438 210.955 182.267 210.764 182.095 210.572C180.732 209.062 179.27 207.569 177.398 206.704C176.506 206.278 175.532 206.051 174.544 206.041C173.524 206.069 172.519 206.288 171.58 206.688C171.134 206.867 170.697 207.07 170.267 207.285C169.776 207.533 169.294 207.797 168.814 208.063C167.913 208.563 167.023 209.085 166.145 209.628C164.399 210.71 162.707 211.874 161.069 213.121C160.221 213.767 159.389 214.435 158.576 215.124C157.819 215.764 157.077 216.421 156.351 217.096C156.196 217.239 155.964 217.007 156.119 216.863C156.311 216.685 156.504 216.507 156.698 216.332C157.245 215.836 157.8 215.351 158.365 214.874C159.394 214.004 160.45 213.168 161.532 212.365C163.215 211.115 164.956 209.951 166.755 208.871C167.655 208.332 168.566 207.815 169.49 207.322C169.769 207.173 170.051 207.027 170.336 206.889C170.984 206.561 171.657 206.287 172.349 206.068C173.329 205.75 174.365 205.648 175.388 205.769C176.376 205.913 177.327 206.243 178.192 206.741C180.03 207.77 181.455 209.361 182.842 210.914C182.982 211.072 182.751 211.305 182.61 211.147Z" fill="white"/>
<path d="M220.257 226.796L224.66 225.182L226.846 224.381C227.552 224.096 228.273 223.848 229.004 223.636C229.644 223.453 230.323 223.462 230.958 223.661C231.524 223.871 232.042 224.193 232.481 224.608C232.93 225.022 233.348 225.469 233.731 225.945C234.207 226.518 234.676 227.097 235.147 227.674C237.091 230.056 239.022 232.449 240.941 234.852C242.859 237.254 244.765 239.667 246.658 242.091C248.555 244.52 250.44 246.959 252.311 249.408C252.54 249.708 252.769 250.009 252.998 250.309C253.125 250.475 253.41 250.311 253.281 250.143C251.396 247.669 249.498 245.205 247.586 242.751C245.67 240.292 243.741 237.842 241.798 235.404C239.856 232.965 237.9 230.537 235.931 228.119C235.441 227.517 234.949 226.915 234.457 226.314C234.042 225.807 233.632 225.295 233.176 224.823C232.789 224.355 232.313 223.968 231.776 223.685C231.239 223.401 230.651 223.227 230.046 223.171C229.314 223.197 228.593 223.355 227.918 223.64C227.182 223.907 226.447 224.178 225.712 224.448L221.278 226.073L220.17 226.479C219.973 226.551 220.058 226.869 220.257 226.796Z" fill="white"/>
<path d="M176.819 208.604C175.687 208.045 174.428 207.798 173.17 207.888C171.912 207.979 170.701 208.402 169.66 209.117C173.582 209.795 177.461 210.702 181.277 211.833C179.692 210.903 178.452 209.445 176.819 208.604Z" fill="white"/>
<path d="M169.638 209.113L169.207 209.463C169.353 209.341 169.504 209.226 169.66 209.117L169.638 209.113Z" fill="white"/>
<path d="M232.316 226.812C231.93 226.243 231.393 225.793 230.765 225.515L230.16 225.539C234.767 233.696 240.99 240.824 248.445 246.485L232.316 226.812Z" fill="white"/>
<path d="M229.484 217.881C231.409 217.881 232.969 216.317 232.969 214.388C232.969 212.46 231.409 210.896 229.484 210.896C227.559 210.896 225.999 212.46 225.999 214.388C225.999 216.317 227.559 217.881 229.484 217.881Z" fill="white"/>
<path d="M280.063 253.197C280.749 253.196 281.407 252.922 281.892 252.436C282.378 251.95 282.651 251.291 282.652 250.603V196.999C282.652 196.311 282.379 195.651 281.893 195.165C281.408 194.678 280.75 194.405 280.063 194.405C279.376 194.405 278.718 194.678 278.233 195.165C277.747 195.651 277.474 196.311 277.474 196.999V250.603C277.475 251.291 277.748 251.95 278.234 252.436C278.719 252.922 279.377 253.196 280.063 253.197Z" fill="#3F3D56"/>
<path d="M280.063 253.197C280.749 253.196 281.407 252.922 281.892 252.436C282.378 251.95 282.651 251.291 282.652 250.603V239.237C282.353 238.829 281.964 238.498 281.514 238.27C281.064 238.042 280.567 237.923 280.063 237.923C279.559 237.923 279.062 238.042 278.612 238.27C278.162 238.498 277.773 238.829 277.474 239.237V250.603C277.475 251.291 277.748 251.95 278.234 252.436C278.719 252.922 279.377 253.196 280.063 253.197Z" fill="#2F2E41"/>
<path d="M280.063 242.245C280.801 242.244 281.509 241.95 282.03 241.427C282.552 240.904 282.846 240.195 282.847 239.456V227.232C282.526 226.794 282.107 226.437 281.623 226.192C281.14 225.946 280.605 225.818 280.063 225.818C279.521 225.818 278.986 225.946 278.503 226.192C278.019 226.437 277.6 226.794 277.279 227.232V239.456C277.28 240.195 277.574 240.904 278.096 241.427C278.618 241.95 279.325 242.244 280.063 242.245Z" fill="#6C63FF"/>
<path d="M280.063 240.023C280.601 240.022 281.117 239.807 281.498 239.426C281.879 239.045 282.093 238.528 282.094 237.988V229.072C281.86 228.752 281.554 228.493 281.201 228.314C280.848 228.134 280.458 228.041 280.063 228.041C279.668 228.041 279.278 228.134 278.925 228.314C278.572 228.493 278.266 228.752 278.032 229.072V237.988C278.033 238.528 278.247 239.045 278.628 239.426C279.009 239.807 279.525 240.022 280.063 240.023Z" fill="#3F3D56"/>
<path d="M200.205 313.417C199.75 313.009 199.476 312.438 199.442 311.827C199.407 311.217 199.616 310.618 200.022 310.162L222.639 284.805C222.84 284.58 223.084 284.396 223.356 284.265C223.628 284.133 223.924 284.057 224.226 284.04C224.527 284.023 224.829 284.066 225.115 284.166C225.4 284.266 225.662 284.421 225.888 284.623C226.113 284.825 226.297 285.069 226.428 285.342C226.559 285.614 226.635 285.91 226.652 286.213C226.669 286.515 226.626 286.818 226.526 287.103C226.427 287.389 226.272 287.652 226.07 287.878L203.454 313.235C203.047 313.69 202.476 313.965 201.867 313.999C201.258 314.033 200.66 313.824 200.205 313.417Z" fill="#6C63FF"/>
<path d="M387.824 355.166C387.824 359.368 386.834 362.584 386.955 365.155C380.17 368.122 373.194 370.629 366.073 372.659C365.268 372.89 364.463 373.109 363.652 373.328C359.262 359.863 354.867 347.534 353.136 346.226C349.172 343.246 347.188 355.575 347.188 352.595C347.188 349.615 349.172 349.615 344.22 345.644C339.261 341.672 342.235 323.799 342.235 323.799L335.297 305.925L343.058 277.416L353.136 240.383H363.048C363.048 240.383 363.341 240.597 363.83 240.994C366.309 243.023 373.787 249.802 372.959 257.266C372.712 259.491 373.264 265.958 374.225 274.569C377.147 300.57 383.86 328.836 383.86 336.295C383.86 346.226 387.824 349.206 387.824 355.166Z" fill="#E6E6E6"/>
<path d="M379.512 274.471C379.501 274.443 379.495 274.42 379.484 274.397C379.262 273.797 379.002 273.212 378.707 272.644C377.033 269.492 378.805 264.65 376.918 259.301C373.869 250.632 370.153 245.519 364.706 240.937C364.544 240.799 364.383 240.666 364.217 240.528L364.211 240.522C360.575 237.531 356.192 234.735 350.75 231.254C349.617 230.527 348.432 229.772 347.201 228.977C345.613 227.957 345.699 224.556 345.791 220.959C345.895 216.965 346.004 212.827 344.048 210.244L343.922 210.077L343.72 210.025C337.014 208.696 330.175 208.168 323.345 208.452H323.339C320.439 208.56 317.559 208.983 314.751 209.714C314.544 209.772 314.337 209.829 314.135 209.898C313.98 209.939 313.825 209.991 313.669 210.043L313.543 210.089L313.445 210.181C311.552 212.077 311.115 215.478 310.908 219.023V219.028C310.868 219.674 310.833 220.32 310.804 220.965C310.643 224.412 310.494 227.669 309.228 229.081C306.405 232.285 302.993 234.915 299.179 236.827C293.236 239.767 288.536 239.675 288.467 239.675L287.921 239.657L287.869 240.199C283.923 247.733 284.072 267.169 283.952 287.982C283.946 289.141 283.938 290.305 283.929 291.475C283.86 301.17 283.676 311.032 282.951 320.018C282.634 323.88 282.226 327.574 281.679 331.027C279.022 347.84 266.982 333.88 261.223 345.068C261.413 346.168 261.731 347.242 262.173 348.267C262.834 348.659 263.513 349.039 264.186 349.42C267.172 351.085 270.213 352.64 273.309 354.083C273.482 354.163 273.655 354.244 273.827 354.319C279.507 356.952 285.362 359.19 291.349 361.017C292.517 361.374 293.685 361.714 294.864 362.037C305.296 364.922 316.037 366.534 326.854 366.838C326.898 366.833 326.942 366.831 326.986 366.832C339.779 366.478 352.489 364.642 364.861 361.362C365.033 361.316 365.206 361.27 365.379 361.224C366.19 361.005 366.995 360.786 367.8 360.555C374.921 358.525 381.897 356.018 388.682 353.051C388.689 353.304 388.714 353.556 388.757 353.806C388.763 353.887 388.774 353.968 388.791 354.048C388.803 353.956 388.814 353.864 388.82 353.771C388.855 353.5 388.883 353.224 388.912 352.947C392.433 318.548 385.121 289.342 379.512 274.471Z" fill="#3F3D56"/>
<path d="M300.453 190.164C303.964 196.597 309.557 201.64 316.311 204.463C323.064 207.286 330.576 207.719 337.608 205.693C344.641 203.667 350.775 199.301 355.001 193.315C359.226 187.329 361.291 180.08 360.856 172.761C360.42 165.442 357.509 158.49 352.604 153.049C347.698 147.609 341.089 144.005 333.866 142.83C326.643 141.656 319.236 142.982 312.866 146.589C306.495 150.196 301.54 155.869 298.817 162.674C298.67 163.044 298.537 163.413 298.404 163.797C296.865 168.087 296.251 172.656 296.605 177.201C296.958 181.746 298.27 186.165 300.453 190.164Z" fill="#FFB6B6"/>
<path d="M295.824 163.797C297.21 159.912 296.606 161.936 298.006 158.066C297.092 161.493 298.537 163.413 298.404 163.797H336.749V141.462C325.515 137.001 314.532 133.205 307.898 141.462C301.987 141.463 296.317 143.816 292.137 148.004C287.957 152.193 285.608 157.874 285.608 163.797H295.824Z" fill="#2F2E41"/>
<path d="M309.417 225.882C309.446 225.469 309.49 225.04 309.549 224.627C309.962 221.584 310.994 218.659 312.041 215.764C313.147 212.647 314.267 209.515 315.387 206.398C313.945 212.056 314.385 218.031 316.641 223.415C323.113 218.364 319.029 206.812 327.491 206.812C347.835 206.812 368.77 190.283 368.77 169.883C368.77 149.498 360.042 134.254 339.698 134.254C319.338 134.254 302.827 143.59 302.429 163.974C327.491 169.883 304.684 223.814 309.417 225.882Z" fill="#2F2E41"/>
<path d="M366.228 166.758C379.255 166.758 389.815 156.177 389.815 143.124C389.815 130.071 379.255 119.489 366.228 119.489C353.2 119.489 342.64 130.071 342.64 143.124C342.64 156.177 353.2 166.758 366.228 166.758Z" fill="#2F2E41"/>
<path d="M403 278.668C402.92 279.884 402.849 281.179 402.787 282.552C401.568 308.427 402.62 343.258 394.4 362.158C392.559 363.166 390.699 364.131 388.82 365.051C388.745 365.086 388.676 365.12 388.613 365.155C388.107 365.403 387.6 365.645 387.094 365.876C387.076 365.891 387.054 365.903 387.031 365.91C381.472 368.542 375.743 370.797 369.883 372.66C369.164 372.89 368.439 373.109 367.714 373.328C367.559 373.374 367.403 373.42 367.248 373.467C356.207 376.738 344.793 378.577 333.285 378.937C332.687 378.954 332.1 378.965 331.531 378.977C331.329 378.983 331.134 378.988 330.938 378.988C330.294 378.994 329.655 379 329.011 379C327.711 379 326.417 378.981 325.128 378.942C314.311 378.638 303.57 377.026 293.139 374.141C291.959 373.818 290.792 373.478 289.624 373.121C283.636 371.294 277.782 369.056 272.102 366.423C271.929 366.348 271.756 366.268 271.584 366.187C268.489 364.746 265.448 363.192 262.46 361.524C261.787 361.143 261.109 360.763 260.447 360.371C260.006 359.346 259.687 358.272 259.498 357.172C258.192 350.884 257.145 355.126 256.397 342.042C255.713 330.047 255.275 318.018 255.114 311.141C255.063 309.309 255.045 307.839 255.04 306.836C255.649 302.467 265.452 297.51 279.747 292.801C281.099 292.357 282.496 291.913 283.929 291.475C287.794 290.282 291.925 289.112 296.239 287.982C307.226 285.1 319.427 282.455 331.537 280.27C337.513 279.198 343.467 278.235 349.249 277.417C359.39 275.976 368.985 274.979 377.194 274.57C377.982 274.529 378.753 274.495 379.513 274.471C380.329 274.437 381.129 274.414 381.911 274.397C393.738 274.137 401.815 275.371 403 278.668Z" fill="#2F2E41"/>
<path opacity="0.2" d="M403 278.668C402.919 279.884 402.849 281.179 402.787 282.553C393.825 272.881 297.274 316.087 256.397 342.042C255.713 330.047 255.275 318.018 255.114 311.141C255.063 309.309 255.045 307.839 255.04 306.836C255.649 302.467 265.452 297.51 279.747 292.801C281.099 292.357 282.496 291.913 283.929 291.475C287.794 290.282 291.925 289.112 296.239 287.982C307.226 285.1 319.427 282.455 331.537 280.27C337.513 279.198 343.467 278.235 349.248 277.417C359.39 275.976 368.985 274.979 377.194 274.569C377.982 274.529 378.753 274.495 379.512 274.471C380.329 274.437 381.129 274.414 381.911 274.397C393.738 274.137 401.815 275.371 403 278.668Z" fill="black"/>
<path d="M206.649 308.647C207.554 309.791 208.699 310.722 210.002 311.374C211.305 312.027 212.736 312.385 214.192 312.424C215.648 312.463 217.095 312.181 218.432 311.599C219.768 311.017 220.96 310.148 221.925 309.054L254.684 322.535L251.149 304.439L220.582 294.411C218.64 292.909 216.217 292.173 213.769 292.342C211.322 292.511 209.022 293.573 207.305 295.328C205.587 297.083 204.572 299.408 204.451 301.863C204.33 304.318 205.112 306.732 206.649 308.647Z" fill="#FFB6B6"/>
<path d="M315.621 233.29L315.442 233.271L296.338 234.66C293.913 234.837 291.553 235.528 289.414 236.688C287.276 237.848 285.408 239.451 283.935 241.39C283.251 242.288 282.658 243.253 282.166 244.27L282.161 244.273C280.515 247.65 280.018 251.474 280.748 255.16L289.742 300.524L268.102 298.554L260.203 299.906L250.881 296.138L231.753 296.464L231.31 297.933L227.297 311.261L226.982 312.309L256.191 330.751L264.659 328.17L268.648 331.24L268.84 331.245L276.751 331.402L310.488 332.065L319.71 315.695L321.151 313.128C331.861 289.087 334.504 272.304 333.665 260.743C333.226 254.634 331.816 249.99 330.11 246.49C324.833 235.676 315.993 233.381 315.621 233.29Z" fill="#3F3D56"/>
<path d="M369.211 164.107C364.738 163.1 360.591 160.977 357.154 157.936C353.718 154.895 351.103 151.033 349.553 146.71C348.169 142.688 347.646 138.272 345.323 134.692C348.862 129.823 351.7 124.479 353.754 118.818C354.548 116.626 356.41 112.647 353.254 111.442C350.74 110.481 347.884 112.8 346.394 114.629C345.262 116.015 344.45 117.635 344.016 119.373C343.502 117.099 342.988 114.825 342.474 112.551C342.409 112.333 342.262 112.149 342.064 112.036C341.867 111.924 341.633 111.892 341.413 111.947C337.201 112.667 334.146 116.575 333.616 120.69C333.326 122.809 333.807 124.962 334.971 126.755C336.324 128.817 338.305 130.296 340.191 131.833C342.196 133.468 343.896 135.208 344.974 137.599C346.094 140.083 346.598 142.801 347.342 145.41C348.752 150.42 351.486 154.956 355.254 158.54C359.022 162.124 363.685 164.624 368.752 165.775C369.835 166.012 370.297 164.345 369.211 164.107ZM345.426 122.771C345.291 120.599 345.863 118.442 347.058 116.624C347.656 115.703 348.406 114.889 349.275 114.218C350.099 113.588 351.314 112.752 352.404 112.984C353.818 113.284 353.249 114.866 352.949 115.819C352.553 117.077 352.117 118.322 351.642 119.553C350.717 121.945 349.643 124.276 348.427 126.532C347.795 127.707 347.12 128.856 346.415 129.987C345.929 127.838 345.444 125.688 344.958 123.539C345.111 123.482 345.24 123.376 345.325 123.237C345.41 123.097 345.446 122.933 345.426 122.771ZM335.348 123.115C335.066 121.151 335.475 119.15 336.505 117.455C337.536 115.76 339.123 114.478 340.995 113.829C342.365 119.889 343.735 125.949 345.104 132.009C344.822 132.427 344.53 132.838 344.238 133.249C344.161 133.161 344.091 133.07 344.011 132.983C341.138 129.85 336.129 127.714 335.348 123.115Z" fill="#6C63FF"/>
</g>
<defs>
<clipPath id="clip0_24_4">
<rect width="324" height="344" fill="white" transform="translate(79 35)"/>
</clipPath>
</defs>
</svg>
