<svg width="400" height="390" viewBox="0 0 568 416" fill="none" xmlns="http://www.w3.org/2000/svg">
<path d="M568 95.0002C568 170.18 523.5 426 269.727 380.856C147.26 285.999 102 304.999 102 218.892C208.294 118.99 49.9376 21.6098 208.294 21.6098C362.909 -13.7095 533.5 -15.5 568 95.0002Z" fill="#FF90E8"/>
<g clip-path="url(#clip0_25_5)">
<path d="M57.7607 319.123C57.3387 319.143 56.921 319.032 56.5641 318.806C56.2072 318.58 55.9284 318.249 55.7654 317.859C55.6025 317.469 55.5632 317.038 55.6531 316.625C55.7429 316.212 55.9574 315.836 56.2676 315.549C56.3196 315.342 56.3568 315.194 56.4088 314.987C56.3902 314.942 56.3715 314.897 56.3527 314.852C55.9276 313.847 55.2153 312.99 54.3052 312.389C53.3951 311.788 52.3279 311.47 51.2376 311.474C50.1472 311.478 49.0824 311.804 48.1768 312.412C47.2712 313.02 46.5653 313.882 46.1477 314.89C44.4786 318.914 42.3536 322.945 41.8303 327.2C41.5999 329.081 41.6971 330.987 42.1176 332.835C38.1974 324.274 36.1618 314.971 36.1487 305.554C36.1479 303.191 36.279 300.83 36.5415 298.481C36.7585 296.556 37.0595 294.645 37.4445 292.747C39.5457 282.45 44.0569 272.799 50.6078 264.586C53.7784 262.854 56.3426 260.191 57.9546 256.956C58.5387 255.793 58.9514 254.551 59.1801 253.27C58.8224 253.317 58.4589 253.346 58.1013 253.37C57.9898 253.375 57.8726 253.381 57.7612 253.387L57.7191 253.389C57.3261 253.407 56.9363 253.31 56.5967 253.111C56.2571 252.912 55.9822 252.619 55.805 252.268C55.6279 251.916 55.5561 251.52 55.5983 251.129C55.6405 250.737 55.7949 250.366 56.0428 250.06C56.1972 249.87 56.3517 249.68 56.5064 249.49C56.7409 249.196 56.9813 248.909 57.2158 248.615C57.2429 248.588 57.2684 248.558 57.2921 248.527C57.5618 248.193 57.8315 247.864 58.1012 247.53C57.6089 246.765 56.9467 246.124 56.1663 245.657C53.4633 244.073 49.7341 245.17 47.7816 247.618C45.8232 250.065 45.4539 253.499 46.134 256.557C46.8028 259.159 47.9092 261.628 49.4058 263.858C49.2592 264.046 49.1067 264.228 48.9602 264.416C46.2806 267.865 43.9451 271.568 41.9873 275.474C42.4634 271.099 41.8951 266.673 40.3292 262.561C38.7422 258.729 35.7676 255.501 33.1481 252.188C30.0016 248.208 23.5495 249.945 22.9952 254.99C22.9898 255.039 22.9846 255.087 22.9795 255.136C23.3685 255.356 23.7494 255.589 24.1221 255.836C24.5902 256.149 24.9529 256.596 25.1628 257.119C25.3726 257.642 25.4197 258.217 25.2979 258.767C25.1761 259.317 24.8911 259.818 24.4803 260.203C24.0694 260.588 23.5519 260.84 22.9954 260.926L22.9384 260.935C23.077 262.339 23.3221 263.73 23.6713 265.097C24.6835 268.911 26.472 272.476 28.9248 275.566C31.3776 278.657 34.4418 281.207 37.9252 283.057C38.1539 283.174 38.3768 283.291 38.6054 283.403C36.6384 288.983 35.4046 294.795 34.9349 300.694C34.6691 304.174 34.6848 307.67 34.9819 311.147L34.9643 311.024C34.2137 307.157 32.153 303.668 29.1301 301.146C24.6405 297.454 18.2975 296.095 13.4539 293.127C12.9392 292.796 12.3406 292.62 11.7289 292.618C11.1172 292.617 10.5178 292.79 10.0015 293.119C9.48511 293.447 9.07331 293.916 8.81465 294.471C8.55598 295.026 8.46123 295.643 8.54158 296.251C8.54808 296.294 8.55468 296.337 8.56139 296.38C9.28342 296.674 9.98642 297.014 10.6663 297.395C11.0554 297.615 11.4363 297.848 11.8089 298.095C12.2771 298.408 12.6398 298.856 12.8496 299.379C13.0595 299.902 13.1066 300.476 12.9848 301.026C12.863 301.576 12.578 302.077 12.1672 302.462C11.7563 302.848 11.2387 303.1 10.6823 303.186L10.6253 303.194C10.5842 303.2 10.5491 303.206 10.5081 303.212C11.7418 306.161 13.4733 308.875 15.6268 311.235C18.2871 314.093 21.5024 316.376 25.0757 317.946C28.6489 319.515 32.5047 320.337 36.4067 320.362H36.4125C37.4717 324.97 39.0064 329.454 40.9919 333.744H57.3507C57.4094 333.562 57.4621 333.374 57.5149 333.192C56.0007 333.288 54.4805 333.197 52.9883 332.923C54.2021 331.432 55.4158 329.929 56.6295 328.438C56.6566 328.41 56.682 328.381 56.7057 328.35C57.3214 327.587 57.9429 326.83 58.5586 326.067L58.5589 326.066C58.5917 323.727 58.3236 321.394 57.7612 319.124L57.7607 319.123Z" fill="#F2F2F2"/>
<path d="M250.682 333.966C250.682 334.055 250.665 334.143 250.631 334.226C250.597 334.308 250.547 334.383 250.484 334.446C250.421 334.51 250.346 334.56 250.264 334.594C250.181 334.628 250.093 334.645 250.004 334.645H0.678491C0.498545 334.645 0.325974 334.573 0.198733 334.446C0.0714914 334.318 0 334.146 0 333.966C0 333.785 0.0714914 333.613 0.198733 333.485C0.325974 333.358 0.498545 333.286 0.678491 333.286H250.004C250.093 333.286 250.181 333.304 250.264 333.338C250.346 333.372 250.421 333.422 250.484 333.485C250.547 333.548 250.597 333.623 250.631 333.705C250.665 333.788 250.682 333.876 250.682 333.966Z" fill="#CCCCCC"/>
<path d="M130.556 246.722C129.617 246.497 128.641 246.481 127.695 246.675C126.749 246.869 125.857 247.268 125.082 247.844C124.307 248.42 123.667 249.16 123.208 250.01C122.75 250.861 122.483 251.801 122.426 252.766L108.173 257.732L109.075 267.138L129.105 259.843C130.731 259.83 132.295 259.221 133.502 258.131C134.708 257.041 135.474 255.545 135.653 253.928C135.832 252.31 135.412 250.684 134.472 249.356C133.533 248.028 132.14 247.091 130.556 246.722Z" fill="#FFB6B6"/>
<path d="M107.327 274.063C101.659 278.017 91.6749 280.039 78.086 279.947C77.3337 279.949 76.5891 279.794 75.8995 279.493C75.2099 279.192 74.5902 278.751 74.0798 278.198C70.4438 274.408 70.5858 265.756 70.6084 264.92L66.623 249.886C66.5376 249.656 64.3316 243.487 66.5759 239.179C67.0534 238.279 67.7198 237.493 68.5294 236.876C69.339 236.258 70.2725 235.823 71.2659 235.601C79.6942 233.362 87.6172 255.946 88.624 258.93L100.452 256.914L108.62 256.578L116.931 251.986L121.61 263.195L110.031 271.666C109.232 272.573 108.324 273.378 107.327 274.063Z" fill="#2F2E41"/>
<path d="M130.149 398.378L138.862 398.785L144.578 365.339L131.719 364.738L130.149 398.378Z" fill="#FFB6B6"/>
<path d="M128.19 393.974L142.001 393.796L141.725 399.703L154.396 409.368C155.022 409.845 155.479 410.511 155.701 411.266C155.922 412.022 155.897 412.829 155.628 413.569C155.359 414.309 154.86 414.944 154.205 415.381C153.551 415.817 152.773 416.033 151.987 415.996L135.59 415.228L133.037 409.253L131.661 415.044L125.478 414.755L128.19 393.974Z" fill="#2F2E41"/>
<path d="M221.115 326.565L224.289 318.433L194.463 302.308L179.396 311.788L221.115 326.565Z" fill="#FFB6B6"/>
<path d="M216.32 327.015L220.571 313.859L226.073 316.011L239.276 307.088C239.929 306.647 240.704 306.426 241.49 306.458C242.277 306.49 243.032 306.772 243.647 307.264C244.261 307.756 244.702 308.432 244.906 309.193C245.11 309.954 245.065 310.76 244.779 311.493L238.804 326.798L232.332 327.307L237.373 330.466L235.12 336.236L216.32 327.015Z" fill="#2F2E41"/>
<path d="M49.7726 302.362C49.7726 302.362 53.3911 325.485 70.4959 327.198C87.6007 328.91 103.368 321.196 103.368 321.196L151.261 306.431C151.261 306.431 202.203 320.92 210.755 323.202C210.755 323.202 216.654 309.799 216.457 308.934C214.638 300.968 212.268 306.357 212.268 306.357L158.103 282.386C158.103 282.386 149.551 280.103 134.726 286.381C119.902 292.659 80.1886 307.793 80.1886 307.793L49.7726 302.362Z" fill="#2F2E41"/>
<path d="M49.9701 300.944C49.9701 300.944 47.1175 328.645 63.7796 332.877C79.6184 336.9 101.466 332.773 101.466 332.773L127.512 330.051C127.512 330.051 128.652 363.551 128.652 380.102C133.944 380.822 139.276 381.204 144.617 381.244C145.757 381.244 145.833 380.646 145.833 380.646L148.041 322.748C148.196 320.231 147.823 317.709 146.945 315.345C146.068 312.981 144.706 310.826 142.947 309.021C141.188 307.215 139.071 305.798 136.732 304.861C134.392 303.924 131.883 303.488 129.365 303.58C128.136 303.627 126.846 303.714 125.496 303.841C109.473 305.379 89.5815 302.11 89.5815 302.11L49.9701 300.944Z" fill="#2F2E41"/>
<path d="M96.1863 260.757C96.1863 260.757 102.951 301.704 98.3793 304.973C93.808 308.241 87.5391 308.254 87.5391 308.254L86.0814 285.646L96.1863 260.757Z" fill="#2F2E41"/>
<path d="M84.9044 210.469L93.9487 219.072C98.1524 223.07 100.939 228.332 101.885 234.059C102.832 239.786 101.887 245.666 99.194 250.807L94.8707 259.059L84.9044 210.469Z" fill="#2F2E41"/>
<path d="M82.882 211.915L95.1369 225.888C97.8265 228.955 99.4932 232.785 99.9047 236.845C100.092 238.688 100.016 240.549 99.6816 242.372L95.0632 267.504L91.5918 303.797C91.5918 303.797 64.7924 311.926 62.0493 299.374C59.3063 286.823 82.882 211.915 82.882 211.915Z" fill="#6C63FF"/>
<path d="M71.3788 307.208C53.7619 304.27 49.4464 303.686 49.1776 303.583L48.9083 303.481L50.6741 292.874L58.1305 274.533C58.6147 268.534 61.7553 260.405 59.9586 253.876C54.7355 234.895 63.2214 208.072 67.1021 206.018L77.8606 198.958L81.637 202.424L88.185 211.599C93.5725 235.622 97.2934 258.013 97.1125 259.382L93.7873 282.9L89.8692 291.921C77.9827 297.663 85.9756 309.643 71.3788 307.208Z" fill="#2F2E41"/>
<path d="M103.274 289.955L130.935 282.547L133.37 281.969L135.107 281.556L137.13 281.077L137.147 281.073C137.441 281.006 137.749 281.057 138.006 281.216L148.276 293.543C148.369 293.6 148.451 293.674 148.518 293.76C148.546 293.782 148.57 293.808 148.591 293.837C148.705 293.992 148.779 294.173 148.806 294.364C148.833 294.554 148.814 294.748 148.748 294.929C148.683 295.11 148.574 295.272 148.432 295.401C148.289 295.53 148.117 295.622 147.93 295.669L106.666 305.175C106.452 305.223 106.229 305.21 106.023 305.137C105.816 305.064 105.634 304.934 105.498 304.762L105.079 304.219L102.796 293.212L102.633 291.782C102.53 291.65 102.457 291.497 102.419 291.333C102.353 291.037 102.405 290.727 102.565 290.469C102.725 290.211 102.979 290.027 103.274 289.955Z" fill="#E6E6E6"/>
<path opacity="0.17" d="M105.079 304.218L105.5 304.763C105.636 304.934 105.817 305.064 106.024 305.137C106.23 305.21 106.452 305.224 106.666 305.176L147.931 295.669C148.118 295.623 148.29 295.531 148.432 295.402C148.575 295.273 148.684 295.111 148.749 294.93C148.814 294.749 148.834 294.555 148.806 294.365C148.779 294.174 148.705 293.994 148.591 293.839C148.571 293.81 148.546 293.783 148.519 293.762L105.079 304.218Z" fill="black"/>
<path d="M136.924 280.996L136.178 228.337C136.147 228.02 136.242 227.704 136.444 227.457L141.732 216.441L142.281 215.773C142.485 215.529 142.777 215.375 143.094 215.343L144.244 215.236C144.562 215.205 144.878 215.301 145.124 215.503C145.37 215.705 145.526 215.997 145.557 216.315L146.594 272.032L146.595 272.036L147.108 277.401L147.717 283.772L147.719 283.78L148.668 293.691C148.686 293.861 148.667 294.032 148.612 294.194C148.557 294.355 148.468 294.502 148.351 294.626C148.236 294.751 148.097 294.85 147.941 294.917C147.785 294.984 147.617 295.016 147.447 295.013L146.698 294.998C146.411 294.99 146.136 294.882 145.921 294.691L145.502 294.314L145.308 294.137L137.322 281.779C137.095 281.578 136.953 281.298 136.924 280.996Z" fill="#E6E6E6"/>
<path opacity="0.17" d="M141.734 216.441L145.307 294.139L145.503 294.314L145.92 294.69C146.135 294.881 146.41 294.99 146.698 294.997L147.448 295.012C147.617 295.015 147.786 294.982 147.942 294.915C148.098 294.848 148.238 294.749 148.353 294.625C148.468 294.5 148.556 294.353 148.61 294.192C148.665 294.031 148.685 293.86 148.669 293.691L145.556 216.316C145.526 215.999 145.37 215.707 145.124 215.503C144.879 215.3 144.562 215.203 144.245 215.234L143.092 215.344C142.935 215.359 142.783 215.404 142.644 215.478C142.506 215.552 142.383 215.653 142.283 215.775L141.734 216.441Z" fill="black"/>
<path d="M142.034 219.581L137.199 231.529L137.797 267.273L143.032 274.852L142.034 219.581Z" fill="#6C63FF"/>
<path d="M106.462 289.64C106.197 289.715 105.973 289.893 105.839 290.133C105.705 290.374 105.672 290.658 105.748 290.923L107.878 299.81L109.874 299.241L107.744 290.354C107.668 290.089 107.491 289.865 107.25 289.731C107.01 289.597 106.726 289.564 106.462 289.64Z" fill="#2F2E41"/>
<path d="M110.454 288.502C110.189 288.577 109.965 288.755 109.831 288.996C109.698 289.236 109.665 289.52 109.74 289.785L110.195 291.384L112.191 290.815L111.736 289.216C111.661 288.951 111.483 288.727 111.243 288.593C111.002 288.459 110.718 288.426 110.454 288.502Z" fill="#2F2E41"/>
<path d="M114.446 287.364C114.181 287.439 113.957 287.617 113.824 287.858C113.69 288.098 113.657 288.382 113.732 288.647L114.187 290.246L116.183 289.677L115.728 288.078C115.653 287.813 115.475 287.589 115.235 287.455C114.994 287.321 114.711 287.288 114.446 287.364Z" fill="#2F2E41"/>
<path d="M118.438 286.226C118.173 286.301 117.95 286.479 117.816 286.72C117.682 286.96 117.649 287.244 117.724 287.509L118.179 289.108L120.175 288.539L119.72 286.94C119.645 286.676 119.467 286.451 119.227 286.317C118.986 286.183 118.703 286.151 118.438 286.226Z" fill="#2F2E41"/>
<path d="M122.43 285.088C122.166 285.164 121.942 285.341 121.808 285.582C121.674 285.823 121.641 286.107 121.716 286.372L122.171 287.97L124.167 287.401L123.712 285.803C123.637 285.538 123.46 285.314 123.219 285.18C122.979 285.046 122.695 285.013 122.43 285.088Z" fill="#2F2E41"/>
<path d="M126.422 283.95C126.158 284.026 125.934 284.203 125.8 284.444C125.666 284.685 125.633 284.969 125.709 285.234L126.163 286.832L128.159 286.263L127.705 284.665C127.629 284.4 127.452 284.176 127.211 284.042C126.971 283.908 126.687 283.875 126.422 283.95Z" fill="#2F2E41"/>
<path d="M130.415 282.812C130.15 282.888 129.926 283.065 129.792 283.306C129.658 283.547 129.625 283.831 129.701 284.096L130.155 285.694L132.151 285.125L131.697 283.527C131.621 283.262 131.444 283.038 131.203 282.904C130.963 282.77 130.679 282.737 130.415 282.812Z" fill="#2F2E41"/>
<path d="M134.407 281.674C134.142 281.75 133.918 281.928 133.784 282.168C133.65 282.409 133.618 282.693 133.693 282.958L134.147 284.556L136.144 283.987L135.689 282.389C135.613 282.124 135.436 281.9 135.196 281.766C134.955 281.632 134.671 281.599 134.407 281.674Z" fill="#2F2E41"/>
<path d="M111.292 292.146C111.027 292.222 110.803 292.399 110.669 292.64C110.535 292.88 110.502 293.165 110.578 293.429L111.032 295.028L113.028 294.459L112.574 292.861C112.498 292.596 112.321 292.372 112.08 292.238C111.84 292.104 111.556 292.071 111.292 292.146Z" fill="#2F2E41"/>
<path d="M115.284 291.008C115.019 291.084 114.795 291.261 114.661 291.502C114.528 291.743 114.495 292.027 114.57 292.292L115.025 293.89L117.021 293.321L116.566 291.723C116.49 291.458 116.313 291.234 116.073 291.1C115.832 290.966 115.548 290.933 115.284 291.008Z" fill="#2F2E41"/>
<path d="M119.276 289.87C119.011 289.946 118.787 290.123 118.654 290.364C118.52 290.605 118.487 290.889 118.562 291.154L119.017 292.752L121.013 292.183L120.558 290.585C120.483 290.32 120.305 290.096 120.065 289.962C119.824 289.828 119.541 289.795 119.276 289.87Z" fill="#2F2E41"/>
<path d="M123.268 288.732C123.003 288.808 122.779 288.985 122.646 289.226C122.512 289.467 122.479 289.751 122.554 290.016L123.009 291.614L125.005 291.045L124.55 289.447C124.475 289.182 124.297 288.958 124.057 288.824C123.816 288.69 123.533 288.657 123.268 288.732Z" fill="#2F2E41"/>
<path d="M127.26 287.594C126.995 287.67 126.772 287.848 126.638 288.088C126.504 288.329 126.471 288.613 126.546 288.878L127.001 290.476L128.997 289.908L128.542 288.309C128.467 288.044 128.289 287.82 128.049 287.686C127.809 287.552 127.525 287.519 127.26 287.594Z" fill="#2F2E41"/>
<path d="M131.252 286.457C130.988 286.532 130.764 286.71 130.63 286.95C130.496 287.191 130.463 287.475 130.538 287.74L130.993 289.339L132.989 288.77L132.535 287.171C132.459 286.906 132.282 286.682 132.041 286.548C131.801 286.414 131.517 286.381 131.252 286.457Z" fill="#2F2E41"/>
<path d="M135.245 285.319C134.98 285.394 134.756 285.572 134.622 285.813C134.488 286.053 134.455 286.337 134.531 286.602L134.985 288.201L136.981 287.632L136.527 286.033C136.451 285.768 136.274 285.544 136.033 285.41C135.793 285.276 135.509 285.243 135.245 285.319Z" fill="#2F2E41"/>
<path d="M112.129 295.79C111.865 295.866 111.641 296.043 111.507 296.284C111.373 296.525 111.34 296.809 111.415 297.074L111.87 298.672L113.866 298.103L113.412 296.505C113.336 296.24 113.159 296.016 112.918 295.882C112.678 295.748 112.394 295.715 112.129 295.79Z" fill="#2F2E41"/>
<path d="M116.121 294.652C115.857 294.728 115.633 294.906 115.499 295.146C115.365 295.387 115.332 295.671 115.408 295.936L115.862 297.534L117.858 296.965L117.404 295.367C117.328 295.102 117.151 294.878 116.91 294.744C116.67 294.61 116.386 294.577 116.121 294.652Z" fill="#2F2E41"/>
<path d="M120.114 293.514C119.849 293.59 119.625 293.768 119.491 294.008C119.357 294.249 119.325 294.533 119.4 294.798L119.854 296.396L121.851 295.828L121.396 294.229C121.32 293.964 121.143 293.74 120.903 293.606C120.662 293.472 120.378 293.439 120.114 293.514Z" fill="#2F2E41"/>
<path d="M124.106 292.377C123.841 292.452 123.617 292.63 123.483 292.87C123.35 293.111 123.317 293.395 123.392 293.66L123.847 295.259L125.843 294.69L125.388 293.091C125.313 292.826 125.135 292.602 124.895 292.468C124.654 292.334 124.371 292.301 124.106 292.377Z" fill="#2F2E41"/>
<path d="M128.098 291.239C127.833 291.314 127.61 291.492 127.476 291.733C127.342 291.973 127.309 292.257 127.384 292.522L127.839 294.121L129.835 293.552L129.38 291.953C129.305 291.688 129.127 291.464 128.887 291.33C128.646 291.196 128.363 291.163 128.098 291.239Z" fill="#2F2E41"/>
<path d="M132.09 290.101C131.825 290.176 131.602 290.354 131.468 290.595C131.334 290.835 131.301 291.119 131.376 291.384L131.831 292.983L133.827 292.414L133.372 290.815C133.297 290.551 133.119 290.326 132.879 290.192C132.639 290.058 132.355 290.026 132.09 290.101Z" fill="#2F2E41"/>
<path d="M136.082 288.963C135.818 289.038 135.594 289.216 135.46 289.457C135.326 289.697 135.293 289.982 135.368 290.246L135.823 291.845L137.819 291.276L137.365 289.678C137.289 289.413 137.112 289.189 136.871 289.055C136.631 288.921 136.347 288.888 136.082 288.963Z" fill="#2F2E41"/>
<path d="M124.353 282.066C123.818 281.262 123.113 280.585 122.288 280.083C121.463 279.581 120.538 279.266 119.578 279.161C118.618 279.056 117.647 279.162 116.733 279.473C115.819 279.784 114.984 280.292 114.287 280.961L100.465 274.895L94.7341 282.404L114.373 290.695C115.574 291.793 117.134 292.412 118.76 292.434C120.385 292.457 121.962 291.882 123.192 290.818C124.422 289.755 125.22 288.276 125.434 286.663C125.648 285.05 125.264 283.414 124.353 282.066Z" fill="#FFB6B6"/>
<path d="M88.7473 286.289C81.906 285.328 73.2128 280.012 63.3152 270.691C62.7624 270.181 62.3215 269.561 62.0206 268.87C61.7197 268.18 61.5652 267.435 61.567 266.682C61.4774 261.428 67.4608 255.183 68.0453 254.586L75.3407 240.851C75.4343 240.625 78.0095 234.601 82.5818 232.971C83.5433 232.637 84.5657 232.515 85.5788 232.613C86.5919 232.712 87.5717 233.029 88.4509 233.542C96.1502 237.64 86.611 259.589 85.3211 262.462L95.3611 269.038L101.577 274.354L110.789 276.647L106.601 288.049L92.3579 286.373C91.1555 286.495 89.9427 286.466 88.7473 286.289Z" fill="#2F2E41"/>
<path d="M102.237 182.404C103.391 172.77 96.6935 164.045 87.2793 162.916C77.865 161.787 69.2985 168.681 68.1454 178.315C66.9923 187.949 73.6893 196.674 83.1035 197.803C92.5178 198.932 101.084 192.038 102.237 182.404Z" fill="#FFB6B6"/>
<path d="M40.4835 167.324C43.7858 164.289 45.7005 159.967 48.4765 156.404C51.2526 152.841 55.6949 149.886 59.8462 151.291C62.7079 152.259 64.6662 155.124 65.4687 158.153C66.2709 161.181 66.1046 164.395 65.9321 167.542C66.6292 161.116 71.5981 155.4 77.6621 154.05C83.7257 152.7 90.4159 155.82 93.455 161.414C95.2278 160.125 97.4114 159.532 99.592 159.747C101.773 159.963 103.798 160.971 105.286 162.582C108.206 165.9 108.263 171.556 105.411 175C102.559 178.443 97.1839 179.209 93.6094 176.681L92.1092 177.763C92.551 180.517 90.6995 183.486 88.0999 184.191C85.9919 184.763 83.1695 184.287 82.1643 186.309C81.4618 187.722 82.256 189.415 83.1657 190.674C84.0752 191.934 85.1762 193.254 85.1138 194.838C85.0201 197.229 82.3771 198.594 80.0951 198.827C74.5928 199.389 68.9448 196.193 66.423 191.089C66.3744 190.99 66.3207 190.891 66.2617 190.791C64.7945 188.365 63.8368 185.666 63.4472 182.857C63.0575 180.048 63.244 177.189 63.9954 174.455C64.3001 173.382 64.2224 172.547 63.4999 172.197C60.3771 170.687 50.9709 171.943 47.9551 173.736C44.9391 175.529 42.3912 178.075 39.4605 180.017C36.5296 181.96 32.9311 183.297 29.6273 182.277C26.9812 181.459 24.9153 179.217 23.6512 176.66C22.3873 174.103 21.8273 171.233 21.3582 168.39C26.9258 172.566 35.2856 172.1 40.4835 167.324Z" fill="#2F2E41"/>
<path d="M491.992 44.6814H232.973C232.703 44.6757 232.447 44.5645 232.259 44.3718C232.07 44.1791 231.964 43.9201 231.964 43.6504C231.964 43.3806 232.07 43.1216 232.259 42.9289C232.447 42.7362 232.703 42.625 232.973 42.6193H491.992C492.262 42.625 492.518 42.7362 492.707 42.9289C492.895 43.1216 493.001 43.3806 493.001 43.6504C493.001 43.9201 492.895 44.1791 492.707 44.3718C492.518 44.5645 492.262 44.6757 491.992 44.6814Z" fill="#CACACA"/>
<path d="M250.605 37.3547C253.939 37.3547 256.641 34.589 256.641 31.1773C256.641 27.7657 253.939 25 250.605 25C247.271 25 244.568 27.7657 244.568 31.1773C244.568 34.589 247.271 37.3547 250.605 37.3547Z" fill="#3F3D56"/>
<path d="M271.458 37.3547C274.792 37.3547 277.495 34.589 277.495 31.1773C277.495 27.7657 274.792 25 271.458 25C268.124 25 265.422 27.7657 265.422 31.1773C265.422 34.589 268.124 37.3547 271.458 37.3547Z" fill="#3F3D56"/>
<path d="M292.312 37.3547C295.646 37.3547 298.348 34.589 298.348 31.1773C298.348 27.7657 295.646 25 292.312 25C288.978 25 286.275 27.7657 286.275 31.1773C286.275 34.589 288.978 37.3547 292.312 37.3547Z" fill="#3F3D56"/>
<path d="M479.437 26.5311H464.623C464.33 26.537 464.05 26.6578 463.845 26.8678C463.639 27.0777 463.524 27.3599 463.524 27.6539C463.524 27.9479 463.639 28.2301 463.845 28.44C464.05 28.65 464.33 28.7708 464.623 28.7767H479.437C479.73 28.7708 480.01 28.65 480.216 28.44C480.421 28.2301 480.536 27.9479 480.536 27.6539C480.536 27.3599 480.421 27.0777 480.216 26.8678C480.01 26.6578 479.73 26.537 479.437 26.5311Z" fill="#3F3D56"/>
<path d="M479.437 30.7457H464.623C464.33 30.7515 464.05 30.8724 463.845 31.0823C463.639 31.2922 463.524 31.5745 463.524 31.8684C463.524 32.1624 463.639 32.4446 463.845 32.6546C464.05 32.8645 464.33 32.9854 464.623 32.9912H479.437C479.73 32.9854 480.01 32.8645 480.216 32.6546C480.421 32.4446 480.536 32.1624 480.536 31.8684C480.536 31.5745 480.421 31.2922 480.216 31.0823C480.01 30.8724 479.73 30.7515 479.437 30.7457Z" fill="#3F3D56"/>
<path d="M479.437 34.9547H464.623C464.33 34.9605 464.05 35.0813 463.845 35.2912C463.639 35.5012 463.524 35.7834 463.524 36.0774C463.524 36.3714 463.639 36.6537 463.845 36.8636C464.05 37.0735 464.33 37.1944 464.623 37.2002H479.437C479.73 37.1944 480.01 37.0735 480.216 36.8636C480.421 36.6537 480.536 36.3714 480.536 36.0774C480.536 35.7834 480.421 35.5012 480.216 35.2912C480.01 35.0813 479.73 34.9605 479.437 34.9547Z" fill="#3F3D56"/>
<path d="M37.8873 281.664L37.8961 281.653L37.8873 281.676V281.664Z" fill="#2F2E41"/>
<path d="M393.708 84.8616C397.83 84.8616 401.171 81.5169 401.171 77.391C401.171 73.2651 397.83 69.9204 393.708 69.9204C389.587 69.9204 386.245 73.2651 386.245 77.391C386.245 81.5169 389.587 84.8616 393.708 84.8616Z" fill="#E6E7E8"/>
<path d="M456.61 93.9335H388.468C388.176 93.9339 387.886 93.8767 387.616 93.7651C387.346 93.6536 387.101 93.4898 386.894 93.2832C386.687 93.0765 386.523 92.8311 386.411 92.561C386.299 92.2909 386.242 92.0013 386.242 91.7089C386.242 91.4164 386.299 91.1269 386.411 90.8567C386.523 90.5866 386.687 90.3412 386.894 90.1346C387.101 89.928 387.346 89.7642 387.616 89.6526C387.886 89.541 388.176 89.4838 388.468 89.4843H456.61C456.902 89.4838 457.191 89.541 457.461 89.6526C457.731 89.7642 457.977 89.928 458.184 90.1346C458.39 90.3412 458.554 90.5866 458.666 90.8567C458.778 91.1269 458.836 91.4164 458.836 91.7089C458.836 92.0013 458.778 92.2909 458.666 92.561C458.554 92.8311 458.39 93.0765 458.184 93.2832C457.977 93.4898 457.731 93.6536 457.461 93.7651C457.191 93.8767 456.902 93.9339 456.61 93.9335Z" fill="#E6E7E8"/>
<path d="M405.392 102.724H388.468C387.878 102.724 387.313 102.49 386.896 102.072C386.479 101.655 386.245 101.089 386.245 100.499C386.245 99.9092 386.479 99.3433 386.896 98.9261C387.313 98.5089 387.878 98.2745 388.468 98.2745H405.392C405.982 98.2745 406.547 98.5089 406.964 98.9261C407.38 99.3433 407.615 99.9092 407.615 100.499C407.615 101.089 407.38 101.655 406.964 102.072C406.547 102.49 405.982 102.724 405.392 102.724Z" fill="#E6E7E8"/>
<path d="M393.708 201.466C397.83 201.466 401.171 198.121 401.171 193.995C401.171 189.869 397.83 186.525 393.708 186.525C389.587 186.525 386.245 189.869 386.245 193.995C386.245 198.121 389.587 201.466 393.708 201.466Z" fill="#E6E7E8"/>
<path d="M456.61 210.538H388.468C387.878 210.538 387.313 210.303 386.896 209.886C386.48 209.469 386.245 208.903 386.245 208.313C386.245 207.723 386.48 207.157 386.896 206.74C387.313 206.323 387.878 206.089 388.468 206.089H456.61C457.199 206.089 457.764 206.323 458.181 206.74C458.598 207.157 458.832 207.723 458.832 208.313C458.832 208.903 458.598 209.469 458.181 209.886C457.764 210.303 457.199 210.538 456.61 210.538Z" fill="#E6E7E8"/>
<path d="M405.392 219.328H388.468C387.878 219.328 387.313 219.094 386.896 218.677C386.479 218.259 386.245 217.694 386.245 217.104C386.245 216.514 386.479 215.948 386.896 215.53C387.313 215.113 387.878 214.879 388.468 214.879H405.392C405.982 214.879 406.547 215.113 406.964 215.53C407.38 215.948 407.615 216.514 407.615 217.104C407.615 217.694 407.38 218.259 406.964 218.677C406.547 219.094 405.982 219.328 405.392 219.328Z" fill="#E6E7E8"/>
<path d="M273.596 183.771C277.718 183.771 281.059 180.426 281.059 176.3C281.059 172.175 277.718 168.83 273.596 168.83C269.474 168.83 266.133 172.175 266.133 176.3C266.133 180.426 269.474 183.771 273.596 183.771Z" fill="#E6E7E8"/>
<path d="M336.497 192.843H268.355C267.766 192.843 267.201 192.609 266.784 192.191C266.367 191.774 266.133 191.208 266.133 190.618C266.133 190.028 266.367 189.463 266.784 189.045C267.201 188.628 267.766 188.394 268.355 188.394H336.497C337.087 188.394 337.652 188.628 338.069 189.045C338.486 189.463 338.72 190.028 338.72 190.618C338.72 191.208 338.486 191.774 338.069 192.191C337.652 192.609 337.087 192.843 336.497 192.843Z" fill="#E6E7E8"/>
<path d="M285.28 201.633H268.355C267.766 201.633 267.201 201.399 266.784 200.982C266.367 200.565 266.133 199.999 266.133 199.409C266.133 198.819 266.367 198.253 266.784 197.836C267.201 197.418 267.766 197.184 268.355 197.184H285.28C285.869 197.184 286.435 197.418 286.851 197.836C287.268 198.253 287.502 198.819 287.502 199.409C287.502 199.999 287.268 200.565 286.851 200.982C286.435 201.399 285.869 201.633 285.28 201.633Z" fill="#E6E7E8"/>
<path d="M393.708 138.768C397.83 138.768 401.171 135.424 401.171 131.298C401.171 127.172 397.83 123.827 393.708 123.827C389.587 123.827 386.245 127.172 386.245 131.298C386.245 135.424 389.587 138.768 393.708 138.768Z" fill="#E6E7E8"/>
<path d="M456.61 147.84H388.468C387.878 147.84 387.313 147.606 386.896 147.189C386.48 146.772 386.245 146.206 386.245 145.616C386.245 145.026 386.48 144.46 386.896 144.043C387.313 143.626 387.878 143.391 388.468 143.391H456.61C457.199 143.391 457.764 143.626 458.181 144.043C458.598 144.46 458.832 145.026 458.832 145.616C458.832 146.206 458.598 146.772 458.181 147.189C457.764 147.606 457.199 147.84 456.61 147.84Z" fill="#E6E7E8"/>
<path d="M429.415 156.631H388.468C387.878 156.631 387.313 156.396 386.896 155.979C386.479 155.562 386.245 154.996 386.245 154.406C386.245 153.816 386.479 153.25 386.896 152.833C387.313 152.416 387.878 152.181 388.468 152.181H429.415C430.004 152.181 430.569 152.416 430.986 152.833C431.403 153.25 431.637 153.816 431.637 154.406C431.637 154.996 431.403 155.562 430.986 155.979C430.569 156.396 430.004 156.631 429.415 156.631Z" fill="#E6E7E8"/>
<path d="M418.006 165.421H388.468C387.878 165.421 387.313 165.187 386.896 164.77C386.479 164.353 386.245 163.787 386.245 163.197C386.245 162.607 386.479 162.041 386.896 161.624C387.313 161.206 387.878 160.972 388.468 160.972H418.006C418.595 160.972 419.16 161.206 419.577 161.624C419.994 162.041 420.228 162.607 420.228 163.197C420.228 163.787 419.994 164.353 419.577 164.77C419.16 165.187 418.595 165.421 418.006 165.421Z" fill="#E6E7E8"/>
<path d="M325.665 82.7519V161.187C325.664 161.734 325.447 162.259 325.061 162.646C324.674 163.034 324.15 163.252 323.604 163.253H282.318C277.75 159.013 274.003 153.966 271.264 148.366C271.084 148.005 270.912 147.641 270.749 147.272C268.253 141.852 266.743 136.029 266.288 130.078C266.257 129.712 266.232 129.348 266.215 128.979C266.158 128.035 266.133 127.076 266.133 126.115C266.125 119.716 267.332 113.374 269.69 107.427C269.831 107.058 269.98 106.691 270.135 106.328C273.24 99.0202 278.013 92.5433 284.072 87.4174C284.433 87.1101 284.797 86.8113 285.165 86.521L285.25 86.4532C289.991 82.6956 295.866 80.6602 301.913 80.6798H323.604C324.151 80.6815 324.676 80.9006 325.062 81.2891C325.449 81.6776 325.666 82.2036 325.665 82.7519Z" fill="#6C63FF"/>
<path opacity="0.2" d="M325.775 107.427V106.328H307.362V80.6798H306.267V106.328H285.165V86.5209C284.796 86.8113 284.432 87.1101 284.072 87.4174V106.328H270.135C269.98 106.691 269.831 107.058 269.69 107.427H284.072V128.979H266.215C266.231 129.348 266.257 129.712 266.288 130.078H284.072V147.272H270.749C270.912 147.641 271.084 148.005 271.264 148.366H284.072V162.819H285.165V148.366H306.267V162.819H307.362V148.366H325.775V147.272H307.362C307.362 145.014 307.806 142.778 308.669 140.692C309.532 138.606 310.797 136.71 312.392 135.113C313.987 133.517 315.881 132.25 317.965 131.386C320.049 130.522 322.283 130.078 324.538 130.078H325.775V128.979H307.362V107.427H325.775ZM306.267 147.272H285.165V130.078H306.267V147.272ZM306.267 128.979H285.165V128.548C285.165 125.774 285.711 123.027 286.772 120.465C287.832 117.902 289.387 115.574 291.346 113.613C293.306 111.651 295.632 110.096 298.192 109.034C300.752 107.973 303.496 107.427 306.267 107.427V128.979Z" fill="black"/>
<path d="M323.698 147.549C323.257 147.569 322.82 147.453 322.447 147.217C322.073 146.98 321.782 146.634 321.611 146.226C321.441 145.818 321.4 145.367 321.494 144.935C321.588 144.503 321.812 144.11 322.136 143.81C322.191 143.594 322.23 143.438 322.284 143.222C322.265 143.175 322.245 143.128 322.225 143.081C320.241 138.345 307.581 151.547 307.034 155.998C306.792 157.965 306.894 159.96 307.334 161.892C303.233 152.937 301.104 143.205 301.09 133.354C301.089 130.882 301.226 128.412 301.501 125.955C301.728 123.941 302.043 121.942 302.446 119.956C304.644 109.185 309.363 99.0884 316.216 90.4969C320.135 90.7159 323.57 90.1182 323.901 82.515C323.96 81.1625 324.962 79.9914 325.183 78.6591C324.809 78.7082 324.429 78.7389 324.055 78.7634C323.938 78.7695 323.815 78.7757 323.699 78.7818L323.655 78.7838C323.244 78.8023 322.836 78.7014 322.481 78.4933C322.125 78.2851 321.838 77.9787 321.653 77.6107C321.467 77.2428 321.392 76.8291 321.436 76.4194C321.48 76.0098 321.642 75.6216 321.901 75.3017C322.063 75.1027 322.225 74.9037 322.386 74.7049C322.632 74.3979 322.883 74.097 323.128 73.7901C323.157 73.7609 323.183 73.7301 323.208 73.6979C323.49 73.3479 323.772 73.0041 324.055 72.6541C323.54 71.8539 322.847 71.1837 322.03 70.6955C319.203 69.0378 315.302 70.1859 313.259 72.7463C311.211 75.3066 310.824 78.8985 311.536 82.0974C312.235 84.8194 313.393 87.4023 314.958 89.7355C314.805 89.932 314.645 90.1223 314.492 90.3188C311.689 93.927 309.246 97.8014 307.198 101.887C307.777 97.3557 300.691 80.9931 297.951 77.5272C294.66 73.3642 287.91 75.181 287.33 80.4583C287.324 80.5094 287.319 80.5605 287.314 80.6115C287.721 80.8414 288.119 81.0854 288.509 81.3434C288.999 81.671 289.378 82.139 289.598 82.6861C289.817 83.2332 289.866 83.8339 289.739 84.4095C289.611 84.9851 289.313 85.5088 288.884 85.9119C288.454 86.315 287.912 86.5788 287.33 86.6686L287.271 86.6778C281.822 94.4648 299.288 114.732 303.66 110.182C301.602 116.019 300.312 122.099 299.82 128.27C299.542 131.91 299.559 135.567 299.869 139.205L299.851 139.076C298.88 131.153 282.215 119.373 277.349 120.354C274.545 120.919 271.784 120.791 272.21 123.621C272.217 123.667 272.224 123.712 272.231 123.757C272.986 124.065 273.721 124.42 274.433 124.819C274.84 125.049 275.238 125.293 275.628 125.551C276.118 125.879 276.497 126.347 276.717 126.894C276.936 127.441 276.985 128.042 276.858 128.617C276.731 129.193 276.433 129.716 276.003 130.12C275.573 130.523 275.031 130.786 274.449 130.876L274.39 130.885C274.347 130.892 274.31 130.898 274.267 130.904C271.787 139.446 290.179 153.231 301.36 148.845H301.366C302.474 153.665 304.079 158.356 306.156 162.844H323.269C323.331 162.654 323.386 162.457 323.441 162.267C321.857 162.366 320.267 162.272 318.706 161.984C319.976 160.425 321.245 158.853 322.515 157.293C322.543 157.264 322.57 157.233 322.595 157.201C323.239 156.403 323.889 155.611 324.533 154.813L324.533 154.812C324.568 152.365 324.287 149.924 323.699 147.549L323.698 147.549ZM304.102 108.96L304.111 108.948L304.102 108.972V108.96ZM300.311 143.165L300.164 142.834C300.17 142.594 300.17 142.355 300.164 142.109C300.164 142.042 300.151 141.974 300.151 141.907C300.207 142.33 300.256 142.754 300.317 143.178L300.311 143.165Z" fill="#2F2E41"/>
</g>
<defs>
<clipPath id="clip0_25_5">
<rect width="493" height="391" fill="white" transform="translate(0 25)"/>
</clipPath>
</defs>
</svg>
