<svg width="262" height="85" viewBox="0 0 262 85" fill="none" xmlns="http://www.w3.org/2000/svg">
<rect width="262" height="85" rx="42.5" fill="#D9D9D9" fill-opacity="0.5"/>
<path d="M66.8477 53.1758C63.4258 53.1758 60.8945 52.2734 59.2539 50.4688C57.6133 48.6641 56.793 45.8574 56.793 42.0488C56.793 34.6309 60.1621 30.9219 66.9004 30.9219C67.8848 30.9219 68.8398 31.0273 69.7656 31.2383C70.6914 31.4375 71.4414 31.6895 72.0156 31.9941C72.5898 32.2988 72.877 32.5918 72.877 32.873C72.877 33.0488 72.8125 33.2832 72.6836 33.5762C72.5664 33.8691 72.4258 34.127 72.2617 34.3496C72.0977 34.5723 71.9512 34.6836 71.8223 34.6836C71.7637 34.6836 71.5996 34.6074 71.3301 34.4551C70.7207 34.127 70.082 33.8516 69.4141 33.6289C68.7461 33.4062 67.9316 33.2949 66.9707 33.2949C64.4512 33.2949 62.5938 33.998 61.3984 35.4043C60.2148 36.7988 59.623 39.0254 59.623 42.084C59.623 45.0723 60.209 47.2754 61.3809 48.6934C62.5645 50.0996 64.3867 50.8027 66.8477 50.8027C67.8789 50.8027 68.7637 50.6797 69.502 50.4336C70.2402 50.1875 70.9492 49.8828 71.6289 49.5195C71.957 49.3438 72.1562 49.2559 72.2266 49.2559C72.3555 49.2559 72.502 49.3672 72.666 49.5898C72.8418 49.8125 72.9941 50.0645 73.123 50.3457C73.252 50.6152 73.3164 50.8086 73.3164 50.9258C73.3164 51.2188 73.0176 51.5469 72.4199 51.9102C71.834 52.2617 71.043 52.5605 70.0469 52.8066C69.0625 53.0527 67.9961 53.1758 66.8477 53.1758ZM80.9629 53.1758C79.9199 53.1758 78.9883 52.8594 78.168 52.2266C77.3477 51.5938 76.9375 50.4746 76.9375 48.8691V30.1836C76.9375 29.7266 77.3535 29.498 78.1855 29.498H78.3262C79.1465 29.498 79.5566 29.7266 79.5566 30.1836V48.623C79.5566 49.4785 79.709 50.0762 80.0137 50.416C80.3184 50.7559 80.7285 50.9258 81.2441 50.9258C81.6309 50.9258 81.9355 50.9023 82.1582 50.8555C82.3809 50.8086 82.5273 50.7852 82.5977 50.7852C82.7852 50.7852 82.9375 50.9727 83.0547 51.3477C83.1836 51.7227 83.248 52.0215 83.248 52.2441C83.248 52.8652 82.4863 53.1758 80.9629 53.1758ZM92.6523 53.1758C90.2969 53.1758 88.498 52.4727 87.2559 51.0664C86.0254 49.6484 85.4102 47.5918 85.4102 44.8965C85.4102 42.2012 86.0371 40.127 87.291 38.6738C88.5449 37.209 90.332 36.4766 92.6523 36.4766C94.9492 36.4766 96.707 37.2031 97.9258 38.6562C99.1445 40.0977 99.7539 42.1777 99.7539 44.8965C99.7539 47.6035 99.1504 49.6602 97.9434 51.0664C96.748 52.4727 94.9844 53.1758 92.6523 53.1758ZM92.5645 50.9258C94.0879 50.9258 95.2129 50.4336 95.9395 49.4492C96.666 48.4531 97.0293 46.918 97.0293 44.8438C97.0293 42.7578 96.666 41.2168 95.9395 40.2207C95.2129 39.2246 94.0879 38.7266 92.5645 38.7266C91.0527 38.7266 89.9395 39.2246 89.2246 40.2207C88.5098 41.2051 88.1523 42.7461 88.1523 44.8438C88.1523 46.9297 88.5039 48.4648 89.207 49.4492C89.9219 50.4336 91.041 50.9258 92.5645 50.9258ZM107.541 53.2988C106.662 53.2988 105.842 53.1875 105.08 52.9648C104.318 52.7422 103.709 52.4727 103.252 52.1562C102.807 51.8281 102.584 51.541 102.584 51.2949C102.584 51.1777 102.643 50.9902 102.76 50.7324C102.889 50.4746 103.035 50.2461 103.199 50.0469C103.375 49.8359 103.533 49.7305 103.674 49.7305C103.709 49.7305 103.814 49.7891 103.99 49.9062C104.459 50.2109 104.951 50.4688 105.467 50.6797C105.994 50.8906 106.621 50.9961 107.348 50.9961C109.387 50.9961 110.406 50.1523 110.406 48.4648C110.406 47.9844 110.307 47.5801 110.107 47.252C109.92 46.9238 109.598 46.6367 109.141 46.3906C108.695 46.1328 108.08 45.8867 107.295 45.6523C106.17 45.3242 105.291 44.9492 104.658 44.5273C104.037 44.1055 103.598 43.6133 103.34 43.0508C103.082 42.4766 102.953 41.7852 102.953 40.9766C102.953 40.1094 103.17 39.3301 103.604 38.6387C104.049 37.9473 104.664 37.4082 105.449 37.0215C106.246 36.6348 107.143 36.4414 108.139 36.4414C108.83 36.4414 109.492 36.5059 110.125 36.6348C110.77 36.7637 111.285 36.9336 111.672 37.1445C112.07 37.3438 112.27 37.5547 112.27 37.7773C112.27 37.9414 112.211 38.1641 112.094 38.4453C111.988 38.7148 111.854 38.9551 111.689 39.166C111.525 39.3652 111.379 39.4648 111.25 39.4648C111.227 39.4648 111.08 39.3945 110.811 39.2539C110.541 39.1016 110.195 38.9668 109.773 38.8496C109.363 38.7207 108.906 38.6562 108.402 38.6562C107.605 38.6562 106.943 38.8379 106.416 39.2012C105.9 39.5527 105.643 40.0273 105.643 40.625C105.643 41.3281 105.83 41.8906 106.205 42.3125C106.58 42.7344 107.201 43.0801 108.068 43.3496C109.404 43.7598 110.424 44.1699 111.127 44.5801C111.83 44.9902 112.328 45.4941 112.621 46.0918C112.926 46.6777 113.078 47.4512 113.078 48.4121C113.078 49.3262 112.832 50.1582 112.34 50.9082C111.848 51.6465 111.18 52.2324 110.336 52.666C109.492 53.0879 108.561 53.2988 107.541 53.2988ZM123.766 53.1758C121.176 53.1758 119.248 52.502 117.982 51.1543C116.729 49.7949 116.102 47.7207 116.102 44.9316C116.102 42.166 116.717 40.0684 117.947 38.6387C119.178 37.1973 120.988 36.4766 123.379 36.4766C125.512 36.4766 127.117 37.168 128.195 38.5508C129.285 39.9336 129.83 41.9609 129.83 44.6328C129.83 44.75 129.766 44.9141 129.637 45.125C129.52 45.3242 129.373 45.5059 129.197 45.6699C129.033 45.8223 128.893 45.8984 128.775 45.8984H118.914C119.043 47.6445 119.488 48.9219 120.25 49.7305C121.023 50.5273 122.184 50.9258 123.73 50.9258C124.598 50.9258 125.342 50.8203 125.963 50.6094C126.596 50.3984 127.205 50.1406 127.791 49.8359C127.85 49.8125 127.938 49.7715 128.055 49.7129C128.172 49.6543 128.254 49.625 128.301 49.625C128.43 49.625 128.576 49.7305 128.74 49.9414C128.916 50.1406 129.062 50.3691 129.18 50.627C129.309 50.873 129.373 51.0547 129.373 51.1719C129.373 51.4297 129.115 51.7168 128.6 52.0332C128.084 52.3496 127.393 52.6191 126.525 52.8418C125.67 53.0645 124.75 53.1758 123.766 53.1758ZM127.035 43.6484C127.035 40.3672 125.787 38.7266 123.291 38.7266C120.607 38.7266 119.148 40.3672 118.914 43.6484H127.035Z" fill="black"/>
<line x1="168.347" y1="27.6401" x2="196.347" y2="54.6401" stroke="black"/>
<line x1="167.93" y1="54.8625" x2="195.65" y2="27.6432" stroke="black"/>
</svg>
