<svg width="1214" height="319" viewBox="0 0 1214 319" fill="none" xmlns="http://www.w3.org/2000/svg">
<rect x="0.467643" y="0.467643" width="1213.06" height="317.997" rx="158.998" fill="#FFC900" stroke="black" stroke-width="0.935285"/>
<path d="M186.966 63.3667C186.56 63.3667 186.264 63.3174 186.078 63.2187C185.903 63.1091 185.815 62.9447 185.815 62.7255V43.7367C185.815 43.4188 185.881 43.1941 186.012 43.0626C186.155 42.9311 186.379 42.8653 186.686 42.8653H192.605C194.315 42.8653 195.827 43.2763 197.142 44.0984C198.469 44.9094 199.132 46.4055 199.132 48.5866C199.132 50.2088 198.754 51.4692 197.997 52.368C197.241 53.2558 196.392 53.8531 195.449 54.16C194.506 54.4559 193.657 54.6039 192.901 54.6039H188.363V62.7255C188.363 62.9447 188.27 63.1091 188.084 63.2187C187.897 63.3174 187.607 63.3667 187.212 63.3667H186.966ZM192.934 52.3844C193.427 52.3844 193.942 52.2803 194.479 52.072C195.016 51.8528 195.482 51.4637 195.877 50.9048C196.271 50.3348 196.468 49.5621 196.468 48.5866C196.468 47.2824 196.079 46.3726 195.301 45.8575C194.534 45.3424 193.608 45.0848 192.523 45.0848H188.363V52.3844H192.934ZM203.801 63.3667C203.384 63.3667 203.083 63.3174 202.897 63.2187C202.71 63.1091 202.617 62.9447 202.617 62.7255V52.4666C202.617 51.1952 202.557 50.28 202.436 49.721C202.316 49.1511 202.255 48.8387 202.255 48.7839C202.255 48.5428 202.436 48.3729 202.798 48.2743C203.171 48.1647 203.521 48.1099 203.85 48.1099C204.113 48.1099 204.311 48.2524 204.442 48.5373C204.574 48.8113 204.689 49.2004 204.787 49.7046L204.869 50.0499C205.911 48.5921 207.04 47.8633 208.256 47.8633C208.815 47.8633 209.237 47.9674 209.522 48.1756C209.807 48.3729 209.95 48.6414 209.95 48.9812C209.95 49.31 209.889 49.6608 209.769 50.0334C209.659 50.3951 209.528 50.576 209.374 50.576C209.297 50.576 209.16 50.5431 208.963 50.4773C208.788 50.4006 208.612 50.3458 208.437 50.3129C208.262 50.2691 208.037 50.2471 207.763 50.2471C207.314 50.2471 206.886 50.3787 206.481 50.6417C206.086 50.9048 205.752 51.1952 205.478 51.5131C205.204 51.8309 205.067 52.0063 205.067 52.0392V62.7255C205.067 62.9447 204.974 63.1091 204.787 63.2187C204.601 63.3174 204.311 63.3667 203.916 63.3667H203.801ZM219.058 63.4818C216.855 63.4818 215.172 62.8242 214.01 61.5089C212.86 60.1827 212.284 58.2592 212.284 55.7383C212.284 53.2174 212.871 51.2774 214.043 49.9183C215.216 48.5483 216.888 47.8633 219.058 47.8633C221.206 47.8633 222.85 48.5428 223.99 49.9019C225.13 51.25 225.7 53.1955 225.7 55.7383C225.7 58.2701 225.135 60.1937 224.006 61.5089C222.888 62.8242 221.239 63.4818 219.058 63.4818ZM218.975 61.3774C220.4 61.3774 221.453 60.9171 222.132 59.9964C222.812 59.0648 223.151 57.6289 223.151 55.689C223.151 53.738 222.812 52.2967 222.132 51.3651C221.453 50.4335 220.4 49.9677 218.975 49.9677C217.562 49.9677 216.52 50.4335 215.852 51.3651C215.183 52.2858 214.849 53.7271 214.849 55.689C214.849 57.6399 215.178 59.0757 215.835 59.9964C216.504 60.9171 217.551 61.3774 218.975 61.3774ZM236.698 63.4818C234.989 63.4818 233.438 62.7529 232.046 61.2952C231.958 61.898 231.799 62.4734 231.569 63.0215C231.525 63.153 231.437 63.2461 231.306 63.3009C231.185 63.3448 231.015 63.3667 230.796 63.3667H230.681C230.374 63.3667 230.15 63.3174 230.007 63.2187C229.876 63.1091 229.81 62.9447 229.81 62.7255V41.9775C229.81 41.5501 230.193 41.3364 230.961 41.3364H231.092C231.859 41.3364 232.243 41.5501 232.243 41.9775V49.3429C232.879 48.8607 233.525 48.4935 234.183 48.2414C234.841 47.9893 235.591 47.8633 236.435 47.8633C237.597 47.8633 238.627 48.1647 239.526 48.7675C240.425 49.3703 241.121 50.2581 241.614 51.4309C242.118 52.6036 242.37 54.012 242.37 55.6561C242.37 57.1686 242.14 58.5222 241.68 59.7169C241.22 60.9006 240.562 61.8268 239.707 62.4954C238.852 63.153 237.849 63.4818 236.698 63.4818ZM236.205 61.361C237.356 61.361 238.238 60.8513 238.852 59.832C239.477 58.8017 239.789 57.344 239.789 55.4588C239.789 53.7051 239.46 52.368 238.803 51.4473C238.145 50.5266 237.17 50.0499 235.876 50.017C235.23 50.017 234.594 50.1266 233.969 50.3458C233.345 50.565 232.769 50.8938 232.243 51.3322V59.3388C232.846 59.9854 233.492 60.4841 234.183 60.8349C234.874 61.1856 235.548 61.361 236.205 61.361ZM250.114 63.4818C249.138 63.4818 248.267 63.1859 247.5 62.594C246.733 62.0021 246.349 60.9554 246.349 59.4539V41.9775C246.349 41.5501 246.738 41.3364 247.516 41.3364H247.648C248.415 41.3364 248.799 41.5501 248.799 41.9775V59.2237C248.799 60.0238 248.941 60.5828 249.226 60.9006C249.511 61.2185 249.895 61.3774 250.377 61.3774C250.739 61.3774 251.024 61.3555 251.232 61.3116C251.44 61.2678 251.577 61.2459 251.643 61.2459C251.818 61.2459 251.961 61.4212 252.07 61.772C252.191 62.1227 252.251 62.4022 252.251 62.6104C252.251 63.1913 251.539 63.4818 250.114 63.4818ZM261.441 63.4818C259.019 63.4818 257.216 62.8516 256.032 61.5911C254.86 60.3197 254.273 58.3797 254.273 55.7712C254.273 53.1845 254.849 51.2226 256 49.8854C257.15 48.5373 258.844 47.8633 261.08 47.8633C263.075 47.8633 264.576 48.5099 265.584 49.8032C266.604 51.0966 267.113 52.9927 267.113 55.4917C267.113 55.6013 267.053 55.7547 266.933 55.952C266.823 56.1383 266.686 56.3082 266.522 56.4617C266.368 56.6042 266.237 56.6754 266.127 56.6754H256.904C257.024 58.3085 257.441 59.5032 258.153 60.2594C258.877 61.0047 259.962 61.3774 261.409 61.3774C262.22 61.3774 262.916 61.2788 263.497 61.0815C264.088 60.8842 264.658 60.6431 265.206 60.3581C265.261 60.3362 265.343 60.2978 265.453 60.243C265.563 60.1882 265.639 60.1608 265.683 60.1608C265.804 60.1608 265.941 60.2594 266.094 60.4567C266.259 60.6431 266.396 60.8568 266.505 61.0979C266.626 61.3281 266.686 61.498 266.686 61.6076C266.686 61.8487 266.445 62.1172 265.963 62.4132C265.48 62.7091 264.834 62.9612 264.023 63.1694C263.223 63.3777 262.362 63.4818 261.441 63.4818ZM264.499 54.571C264.499 51.5021 263.332 49.9677 260.998 49.9677C258.488 49.9677 257.123 51.5021 256.904 54.571H264.499ZM286.448 47.8633C287.664 47.8633 288.733 48.2085 289.653 48.899C290.574 49.5895 291.034 50.8171 291.034 52.5817V62.7255C291.034 62.9447 290.941 63.1091 290.755 63.2187C290.569 63.3174 290.273 63.3667 289.867 63.3667H289.769C289.352 63.3667 289.051 63.3174 288.864 63.2187C288.678 63.1091 288.585 62.9447 288.585 62.7255V52.8283C288.585 51.9405 288.344 51.2445 287.861 50.7404C287.39 50.2362 286.694 49.9841 285.773 49.9841C285.006 49.9841 284.31 50.2088 283.686 50.6582C283.072 51.0966 282.573 51.5569 282.189 52.0392C282.211 52.3022 282.222 52.4995 282.222 52.631V62.7255C282.222 63.153 281.828 63.3667 281.039 63.3667H280.924C280.145 63.3667 279.756 63.153 279.756 62.7255V52.8283C279.756 51.9405 279.515 51.2445 279.033 50.7404C278.562 50.2362 277.866 49.9841 276.945 49.9841C276.309 49.9841 275.728 50.1375 275.202 50.4444C274.676 50.7404 274.238 51.0637 273.887 51.4144C273.547 51.7652 273.377 51.9624 273.377 52.0063V62.7255C273.377 62.9447 273.284 63.1091 273.098 63.2187C272.922 63.3174 272.632 63.3667 272.226 63.3667H272.095C271.689 63.3667 271.393 63.3174 271.207 63.2187C271.032 63.1091 270.944 62.9447 270.944 62.7255V52.4666C270.944 51.1952 270.884 50.28 270.763 49.721C270.643 49.1511 270.582 48.8387 270.582 48.7839C270.582 48.5428 270.763 48.3729 271.125 48.2743C271.498 48.1647 271.843 48.1099 272.161 48.1099C272.435 48.1099 272.637 48.2578 272.769 48.5538C272.901 48.8497 272.994 49.1511 273.048 49.458C273.114 49.7649 273.158 49.9622 273.18 50.0499C273.717 49.4251 274.375 48.9045 275.153 48.488C275.931 48.0715 276.753 47.8633 277.619 47.8633C278.507 47.8633 279.334 48.0441 280.101 48.4058C280.869 48.7565 281.433 49.3813 281.795 50.28C282.398 49.5676 283.105 48.9867 283.916 48.5373C284.727 48.0879 285.571 47.8633 286.448 47.8633ZM307.409 63.4818C306.335 63.4818 305.332 63.3667 304.401 63.1365C303.48 62.8954 302.74 62.6104 302.181 62.2816C301.633 61.9419 301.359 61.635 301.359 61.361C301.359 61.2075 301.419 61.0047 301.54 60.7527C301.671 60.5006 301.819 60.2759 301.984 60.0786C302.148 59.8813 302.28 59.7827 302.378 59.7827C302.466 59.7827 302.658 59.8703 302.954 60.0457C303.633 60.3964 304.307 60.6869 304.976 60.9171C305.645 61.1472 306.456 61.2623 307.409 61.2623C308.155 61.2623 308.818 61.1198 309.399 60.8349C309.979 60.5499 310.429 60.1498 310.747 59.6347C311.075 59.1086 311.24 58.5058 311.24 57.8262C311.24 57.1029 311.043 56.5055 310.648 56.0342C310.264 55.552 309.793 55.1738 309.234 54.8998C308.686 54.6148 307.886 54.2641 306.834 53.8476C305.694 53.4092 304.79 53.0037 304.121 52.631C303.464 52.2474 302.899 51.6939 302.428 50.9705C301.967 50.2471 301.737 49.2881 301.737 48.0934C301.737 47.0522 302.006 46.1206 302.543 45.2985C303.08 44.4655 303.842 43.8189 304.828 43.3585C305.815 42.8982 306.949 42.668 308.231 42.668C308.812 42.668 309.475 42.7502 310.221 42.9147C310.966 43.0681 311.602 43.2818 312.128 43.5558C312.665 43.8298 312.933 44.1313 312.933 44.4601C312.933 44.6025 312.873 44.7998 312.752 45.0519C312.643 45.2931 312.511 45.5123 312.358 45.7095C312.204 45.9068 312.084 46.0055 311.996 46.0055C311.898 46.0055 311.7 45.9233 311.404 45.7589C310.911 45.4958 310.423 45.2876 309.941 45.1341C309.459 44.9697 308.872 44.8875 308.182 44.8875C307.053 44.8875 306.138 45.178 305.436 45.7589C304.746 46.3398 304.401 47.1508 304.401 48.1921C304.401 48.8168 304.554 49.3319 304.861 49.7375C305.168 50.143 305.557 50.4663 306.028 50.7075C306.5 50.9486 307.157 51.2281 308.001 51.5459C308.056 51.5569 308.182 51.6007 308.379 51.6775C309.541 52.1268 310.489 52.5653 311.223 52.9927C311.969 53.4092 312.599 54.012 313.114 54.8012C313.64 55.5903 313.903 56.5987 313.903 57.8262C313.903 58.9771 313.635 59.9799 313.098 60.8349C312.572 61.6898 311.815 62.3474 310.829 62.8077C309.853 63.2571 308.714 63.4818 307.409 63.4818ZM323.291 63.4818C321.088 63.4818 319.405 62.8242 318.244 61.5089C317.093 60.1827 316.517 58.2592 316.517 55.7383C316.517 53.2174 317.104 51.2774 318.276 49.9183C319.449 48.5483 321.121 47.8633 323.291 47.8633C325.439 47.8633 327.083 48.5428 328.223 49.9019C329.363 51.25 329.933 53.1955 329.933 55.7383C329.933 58.2701 329.368 60.1937 328.239 61.5089C327.121 62.8242 325.472 63.4818 323.291 63.4818ZM323.209 61.3774C324.633 61.3774 325.686 60.9171 326.365 59.9964C327.045 59.0648 327.385 57.6289 327.385 55.689C327.385 53.738 327.045 52.2967 326.365 51.3651C325.686 50.4335 324.633 49.9677 323.209 49.9677C321.795 49.9677 320.754 50.4335 320.085 51.3651C319.416 52.2858 319.082 53.7271 319.082 55.689C319.082 57.6399 319.411 59.0757 320.068 59.9964C320.737 60.9171 321.784 61.3774 323.209 61.3774ZM337.709 63.4818C336.734 63.4818 335.862 63.1859 335.095 62.594C334.328 62.0021 333.944 60.9554 333.944 59.4539V41.9775C333.944 41.5501 334.333 41.3364 335.112 41.3364H335.243C336.01 41.3364 336.394 41.5501 336.394 41.9775V59.2237C336.394 60.0238 336.536 60.5828 336.821 60.9006C337.106 61.2185 337.49 61.3774 337.972 61.3774C338.334 61.3774 338.619 61.3555 338.827 61.3116C339.035 61.2678 339.172 61.2459 339.238 61.2459C339.414 61.2459 339.556 61.4212 339.666 61.772C339.786 62.1227 339.846 62.4022 339.846 62.6104C339.846 63.1913 339.134 63.4818 337.709 63.4818ZM346.85 63.3667C346.16 63.3667 345.765 63.2133 345.666 62.9064L340.964 48.8497C340.899 48.6524 340.866 48.5264 340.866 48.4716C340.866 48.3181 340.97 48.1976 341.178 48.1099C341.386 48.0222 341.704 47.9783 342.132 47.9783H342.28C342.959 47.9783 343.348 48.1318 343.447 48.4387L346.423 57.7605C346.664 58.4839 346.943 59.4703 347.261 60.7198L347.442 61.4103H347.574L347.771 60.5389C348.012 59.3881 348.237 58.4839 348.445 57.8262L351.453 48.4387C351.552 48.1318 351.952 47.9783 352.654 47.9783H352.736C353.47 47.9783 353.837 48.1427 353.837 48.4716C353.837 48.5812 353.799 48.7127 353.722 48.8661L349.037 62.9064C348.938 63.2133 348.544 63.3667 347.853 63.3667H346.85ZM358.145 44.345C357.367 44.345 356.978 44.1313 356.978 43.7038V41.9775C356.978 41.5501 357.367 41.3364 358.145 41.3364H358.49C359.279 41.3364 359.674 41.5501 359.674 41.9775V43.7038C359.674 44.1313 359.279 44.345 358.49 44.345H358.145ZM358.26 63.3667C357.482 63.3667 357.093 63.153 357.093 62.7255V48.6195C357.093 48.1921 357.482 47.9783 358.26 47.9783H358.375C359.164 47.9783 359.559 48.1921 359.559 48.6195V62.7255C359.559 63.153 359.164 63.3667 358.375 63.3667H358.26ZM365.888 63.3667C365.472 63.3667 365.17 63.3174 364.984 63.2187C364.798 63.1091 364.705 62.9447 364.705 62.7255V52.4666C364.705 51.1952 364.644 50.28 364.524 49.721C364.403 49.1511 364.343 48.8387 364.343 48.7839C364.343 48.5428 364.524 48.3729 364.885 48.2743C365.258 48.1647 365.609 48.1099 365.938 48.1099C366.212 48.1099 366.414 48.2578 366.546 48.5538C366.677 48.8497 366.771 49.1511 366.825 49.458C366.891 49.7649 366.935 49.9622 366.957 50.0499C367.571 49.3593 368.278 48.8223 369.078 48.4387C369.889 48.0551 370.705 47.8633 371.527 47.8633C373.018 47.8633 374.18 48.2852 375.013 49.1292C375.857 49.9622 376.279 51.113 376.279 52.5817V62.7255C376.279 62.9447 376.186 63.1091 375.999 63.2187C375.813 63.3174 375.517 63.3667 375.111 63.3667H374.98C374.585 63.3667 374.295 63.3174 374.109 63.2187C373.922 63.1091 373.829 62.9447 373.829 62.7255V52.8283C373.829 51.9296 373.566 51.2336 373.04 50.7404C372.525 50.2362 371.796 49.9841 370.853 49.9841C370.196 49.9841 369.533 50.1704 368.864 50.5431C368.206 50.9048 367.636 51.4035 367.154 52.0392V62.7255C367.154 62.9447 367.061 63.1091 366.875 63.2187C366.688 63.3174 366.398 63.3667 366.003 63.3667H365.888ZM385.864 69.5155C384 69.5155 382.526 69.225 381.441 68.6441C380.356 68.0632 379.813 67.148 379.813 65.8986C379.813 65.0436 380.06 64.2983 380.553 63.6626C381.046 63.0269 381.688 62.5502 382.477 62.2323L382.51 62.1665C382.126 61.8706 381.83 61.5308 381.622 61.1472C381.425 60.7636 381.326 60.3088 381.326 59.7827C381.326 58.5113 381.874 57.4919 382.97 56.7247C382.148 56.3301 381.523 55.7766 381.096 55.0642C380.668 54.3408 380.455 53.5298 380.455 52.631C380.455 51.7323 380.674 50.9212 381.112 50.1978C381.562 49.4744 382.219 48.9045 383.085 48.488C383.951 48.0715 384.992 47.8633 386.209 47.8633C386.855 47.8633 387.431 47.9181 387.935 48.0277H393.245C393.454 48.0277 393.602 48.0989 393.689 48.2414C393.788 48.3729 393.837 48.5921 393.837 48.899V49.2607C393.837 49.5676 393.788 49.7923 393.689 49.9348C393.602 50.0663 393.454 50.1321 393.245 50.1321C392.511 50.1321 391.832 50.1047 391.207 50.0499L391.174 50.0992C391.426 50.4499 391.612 50.8445 391.733 51.2829C391.864 51.7103 391.93 52.1597 391.93 52.631C391.93 53.5298 391.705 54.3408 391.256 55.0642C390.818 55.7876 390.166 56.3575 389.3 56.774C388.445 57.1905 387.404 57.3988 386.176 57.3988C385.255 57.4317 384.559 57.6015 384.088 57.9084C383.628 58.2153 383.397 58.7195 383.397 59.421C383.397 59.9361 383.562 60.3307 383.891 60.6047C384.23 60.8787 384.652 61.0705 385.157 61.1801C385.661 61.2897 386.362 61.3938 387.261 61.4925L388.116 61.5911C389.026 61.7117 389.787 61.8761 390.401 62.0843C391.015 62.2926 391.519 62.6378 391.914 63.1201C392.319 63.6024 392.522 64.2655 392.522 65.1094C392.522 66.5233 391.958 67.6084 390.829 68.3646C389.7 69.1319 388.045 69.5155 385.864 69.5155ZM386.176 55.4588C387.25 55.4588 388.105 55.2396 388.741 54.8012C389.376 54.3628 389.694 53.6449 389.694 52.6475C389.694 50.7623 388.521 49.8197 386.176 49.8197C383.863 49.8197 382.707 50.7623 382.707 52.6475C382.707 53.6449 383.019 54.3628 383.644 54.8012C384.28 55.2396 385.124 55.4588 386.176 55.4588ZM386.176 67.5262C387.535 67.5262 388.543 67.3453 389.201 66.9836C389.859 66.6329 390.187 66.0958 390.187 65.3725C390.187 64.9012 390.012 64.534 389.661 64.2709C389.311 64.0188 388.878 63.838 388.363 63.7284C387.858 63.6298 387.19 63.5366 386.357 63.4489C385.787 63.3831 385.316 63.3229 384.943 63.2681C384.581 63.2133 384.247 63.1365 383.94 63.0379C382.647 63.5859 382 64.3805 382 65.4218C382 66.8247 383.392 67.5262 386.176 67.5262Z" fill="black"/>
<path d="M908.323 63.3667C907.599 63.3667 907.205 63.2133 907.139 62.9064L902.141 43.7038C902.13 43.649 902.114 43.5778 902.092 43.4901C902.07 43.4024 902.059 43.3366 902.059 43.2928C902.059 43.1393 902.163 43.0188 902.371 42.9311C902.579 42.8324 902.897 42.7831 903.325 42.7831H903.604C903.922 42.7831 904.185 42.8215 904.393 42.8982C904.602 42.9749 904.728 43.0955 904.771 43.2599L908.487 57.6454C908.553 57.9304 908.695 58.6592 908.914 59.832C908.969 60.1718 909.002 60.3526 909.013 60.3745C909.254 59.3662 909.49 58.4291 909.72 57.5632L913.255 43.2928C913.331 42.953 913.71 42.7831 914.389 42.7831H914.849C915.54 42.7831 915.924 42.953 916 43.2928L919.617 57.6783C919.727 58.1057 919.831 58.6154 919.93 59.2072C920.039 59.7991 920.105 60.1882 920.127 60.3745C920.357 59.4319 920.593 58.5058 920.834 57.5961L924.369 43.2599C924.445 42.9421 924.829 42.7831 925.519 42.7831H925.7C926.533 42.7831 926.95 42.953 926.95 43.2928C926.95 43.3695 926.922 43.5065 926.868 43.7038L921.82 62.9064C921.733 63.2133 921.338 63.3667 920.637 63.3667H919.453C918.74 63.3667 918.351 63.2133 918.286 62.9064L915.08 51.0034L914.488 47.2056L913.863 51.0034L910.674 62.9064C910.608 63.2133 910.224 63.3667 909.523 63.3667H908.323ZM935.581 63.4818C933.159 63.4818 931.356 62.8516 930.172 61.5911C928.999 60.3197 928.413 58.3797 928.413 55.7712C928.413 53.1845 928.988 51.2226 930.139 49.8854C931.29 48.5373 932.983 47.8633 935.219 47.8633C937.214 47.8633 938.716 48.5099 939.724 49.8032C940.743 51.0966 941.253 52.9927 941.253 55.4917C941.253 55.6013 941.193 55.7547 941.072 55.952C940.963 56.1383 940.826 56.3082 940.661 56.4617C940.508 56.6042 940.376 56.6754 940.267 56.6754H931.043C931.164 58.3085 931.58 59.5032 932.293 60.2594C933.016 61.0047 934.101 61.3774 935.548 61.3774C936.359 61.3774 937.055 61.2788 937.636 61.0815C938.228 60.8842 938.798 60.6431 939.346 60.3581C939.401 60.3362 939.483 60.2978 939.592 60.243C939.702 60.1882 939.779 60.1608 939.823 60.1608C939.943 60.1608 940.08 60.2594 940.234 60.4567C940.398 60.6431 940.535 60.8568 940.645 61.0979C940.765 61.3281 940.826 61.498 940.826 61.6076C940.826 61.8487 940.584 62.1172 940.102 62.4132C939.62 62.7091 938.973 62.9612 938.162 63.1694C937.362 63.3777 936.502 63.4818 935.581 63.4818ZM938.639 54.571C938.639 51.5021 937.472 49.9677 935.137 49.9677C932.627 49.9677 931.263 51.5021 931.043 54.571H938.639ZM951.972 63.4818C950.262 63.4818 948.712 62.7529 947.32 61.2952C947.232 61.898 947.073 62.4734 946.843 63.0215C946.799 63.153 946.711 63.2461 946.58 63.3009C946.459 63.3448 946.289 63.3667 946.07 63.3667H945.955C945.648 63.3667 945.423 63.3174 945.281 63.2187C945.149 63.1091 945.084 62.9447 945.084 62.7255V41.9775C945.084 41.5501 945.467 41.3364 946.234 41.3364H946.366C947.133 41.3364 947.517 41.5501 947.517 41.9775V49.3429C948.153 48.8607 948.799 48.4935 949.457 48.2414C950.114 47.9893 950.865 47.8633 951.709 47.8633C952.871 47.8633 953.901 48.1647 954.8 48.7675C955.699 49.3703 956.395 50.2581 956.888 51.4309C957.392 52.6036 957.644 54.012 957.644 55.6561C957.644 57.1686 957.414 58.5222 956.954 59.7169C956.493 60.9006 955.836 61.8268 954.981 62.4954C954.126 63.153 953.123 63.4818 951.972 63.4818ZM951.479 61.361C952.63 61.361 953.512 60.8513 954.126 59.832C954.751 58.8017 955.063 57.344 955.063 55.4588C955.063 53.7051 954.734 52.368 954.077 51.4473C953.419 50.5266 952.444 50.0499 951.15 50.017C950.504 50.017 949.868 50.1266 949.243 50.3458C948.618 50.565 948.043 50.8938 947.517 51.3322V59.3388C948.12 59.9854 948.766 60.4841 949.457 60.8349C950.147 61.1856 950.821 61.361 951.479 61.361ZM969.975 63.3174C969.668 63.3174 969.443 63.2461 969.301 63.1037C969.158 62.9612 969.087 62.742 969.087 62.446V43.7367C969.087 43.4298 969.158 43.2106 969.301 43.0791C969.443 42.9366 969.668 42.8653 969.975 42.8653H975.877C978.617 42.8653 980.809 43.6764 982.453 45.2985C984.097 46.9207 984.919 49.5128 984.919 53.0749C984.919 56.659 984.097 59.262 982.453 60.8842C980.809 62.5063 978.617 63.3174 975.877 63.3174H969.975ZM975.68 61.0979C977.652 61.0979 979.242 60.4567 980.447 59.1744C981.653 57.881 982.256 55.8479 982.256 53.0749C982.256 51.2117 981.971 49.6882 981.401 48.5044C980.831 47.3098 980.053 46.4439 979.066 45.9068C978.08 45.3588 976.951 45.0848 975.68 45.0848H971.668V61.0979H975.68ZM995.359 63.4818C992.937 63.4818 991.134 62.8516 989.95 61.5911C988.777 60.3197 988.191 58.3797 988.191 55.7712C988.191 53.1845 988.766 51.2226 989.917 49.8854C991.068 48.5373 992.761 47.8633 994.997 47.8633C996.992 47.8633 998.494 48.5099 999.502 49.8032C1000.52 51.0966 1001.03 52.9927 1001.03 55.4917C1001.03 55.6013 1000.97 55.7547 1000.85 55.952C1000.74 56.1383 1000.6 56.3082 1000.44 56.4617C1000.29 56.6042 1000.15 56.6754 1000.04 56.6754H990.821C990.942 58.3085 991.358 59.5032 992.071 60.2594C992.794 61.0047 993.879 61.3774 995.326 61.3774C996.137 61.3774 996.833 61.2788 997.414 61.0815C998.006 60.8842 998.576 60.6431 999.124 60.3581C999.179 60.3362 999.261 60.2978 999.37 60.243C999.48 60.1882 999.557 60.1608 999.601 60.1608C999.721 60.1608 999.858 60.2594 1000.01 60.4567C1000.18 60.6431 1000.31 60.8568 1000.42 61.0979C1000.54 61.3281 1000.6 61.498 1000.6 61.6076C1000.6 61.8487 1000.36 62.1172 999.88 62.4132C999.398 62.7091 998.751 62.9612 997.94 63.1694C997.14 63.3777 996.28 63.4818 995.359 63.4818ZM998.417 54.571C998.417 51.5021 997.25 49.9677 994.915 49.9677C992.405 49.9677 991.04 51.5021 990.821 54.571H998.417ZM1008.96 63.3667C1008.26 63.3667 1007.87 63.2133 1007.77 62.9064L1003.07 48.8497C1003 48.6524 1002.97 48.5264 1002.97 48.4716C1002.97 48.3181 1003.07 48.1976 1003.28 48.1099C1003.49 48.0222 1003.81 47.9783 1004.24 47.9783H1004.38C1005.06 47.9783 1005.45 48.1318 1005.55 48.4387L1008.53 57.7605C1008.77 58.4839 1009.05 59.4703 1009.37 60.7198L1009.55 61.4103H1009.68L1009.88 60.5389C1010.12 59.3881 1010.34 58.4839 1010.55 57.8262L1013.56 48.4387C1013.66 48.1318 1014.06 47.9783 1014.76 47.9783H1014.84C1015.58 47.9783 1015.94 48.1427 1015.94 48.4716C1015.94 48.5812 1015.9 48.7127 1015.83 48.8661L1011.14 62.9064C1011.04 63.2133 1010.65 63.3667 1009.96 63.3667H1008.96Z" fill="black"/>
<path d="M184.37 288.885C182.671 288.885 181.224 288.622 180.03 288.096C178.835 287.559 177.931 286.787 177.317 285.778C176.703 284.77 176.396 283.564 176.396 282.161V268.844C176.396 268.406 176.785 268.187 177.563 268.187H177.794C178.572 268.187 178.961 268.406 178.961 268.844V282.26C178.961 283.115 179.197 283.877 179.668 284.545C180.139 285.214 180.786 285.734 181.608 286.107C182.43 286.48 183.351 286.666 184.37 286.666C185.4 286.666 186.326 286.48 187.148 286.107C187.97 285.723 188.612 285.197 189.072 284.529C189.543 283.86 189.779 283.104 189.779 282.26V268.844C189.779 268.406 190.168 268.187 190.946 268.187H191.193C191.96 268.187 192.344 268.406 192.344 268.844V282.161C192.344 283.564 192.037 284.77 191.423 285.778C190.809 286.787 189.905 287.559 188.71 288.096C187.516 288.622 186.069 288.885 184.37 288.885ZM198.788 288.77C197.999 288.77 197.605 288.557 197.605 288.129V268.844C197.605 268.406 197.999 268.187 198.788 268.187H199.018C199.797 268.187 200.186 268.406 200.186 268.844V288.129C200.186 288.557 199.797 288.77 199.018 288.77H198.788ZM210.543 290.941C210.291 290.941 210.099 290.886 209.968 290.776C209.836 290.677 209.771 290.54 209.771 290.365C209.771 290.19 209.798 290.042 209.853 289.921L218.928 268.844C219.125 268.395 219.465 268.17 219.947 268.17H220.079C220.528 268.17 220.753 268.362 220.753 268.746C220.753 268.932 220.725 269.08 220.671 269.19L211.612 290.266C211.513 290.508 211.387 290.677 211.234 290.776C211.091 290.886 210.899 290.941 210.658 290.941H210.543ZM238.328 288.885C236.629 288.885 235.182 288.622 233.987 288.096C232.793 287.559 231.889 286.787 231.275 285.778C230.661 284.77 230.354 283.564 230.354 282.161V268.844C230.354 268.406 230.743 268.187 231.521 268.187H231.752C232.53 268.187 232.919 268.406 232.919 268.844V282.26C232.919 283.115 233.154 283.877 233.626 284.545C234.097 285.214 234.744 285.734 235.566 286.107C236.388 286.48 237.308 286.666 238.328 286.666C239.358 286.666 240.284 286.48 241.106 286.107C241.928 285.723 242.569 285.197 243.03 284.529C243.501 283.86 243.737 283.104 243.737 282.26V268.844C243.737 268.406 244.126 268.187 244.904 268.187H245.151C245.918 268.187 246.301 268.406 246.301 268.844V282.161C246.301 283.564 245.995 284.77 245.381 285.778C244.767 286.787 243.863 287.559 242.668 288.096C241.473 288.622 240.027 288.885 238.328 288.885ZM250.675 288.77C250.192 288.77 249.847 288.732 249.639 288.655C249.431 288.579 249.327 288.453 249.327 288.277C249.327 288.146 249.403 287.97 249.557 287.751L256.1 278.051L250.247 269.223C250.094 268.992 250.017 268.817 250.017 268.696C250.017 268.357 250.466 268.187 251.365 268.187H251.793C252.406 268.187 252.817 268.335 253.026 268.631L257.711 275.684L262.528 268.614C262.627 268.472 262.791 268.368 263.022 268.302C263.252 268.225 263.509 268.187 263.794 268.187H263.959C264.441 268.187 264.786 268.231 264.994 268.318C265.203 268.395 265.307 268.521 265.307 268.696C265.307 268.762 265.279 268.844 265.225 268.943C265.181 269.031 265.131 269.124 265.077 269.223L259.224 277.903L265.816 287.751C265.97 287.97 266.047 288.146 266.047 288.277C266.047 288.442 265.942 288.568 265.734 288.655C265.526 288.732 265.181 288.77 264.698 288.77H264.222C263.893 288.77 263.63 288.743 263.433 288.688C263.235 288.622 263.082 288.502 262.972 288.326L257.596 280.304L252.154 288.359C251.99 288.633 251.568 288.77 250.888 288.77H250.675Z" fill="black"/>
<path d="M790.791 288.77C790.385 288.77 790.089 288.721 789.903 288.622C789.717 288.513 789.624 288.348 789.624 288.129V270.488H784.001C783.793 270.488 783.645 270.417 783.557 270.275C783.469 270.132 783.425 269.913 783.425 269.617V269.14C783.425 268.833 783.469 268.614 783.557 268.483C783.645 268.34 783.793 268.269 784.001 268.269H797.712C797.921 268.269 798.069 268.34 798.156 268.483C798.244 268.614 798.288 268.833 798.288 269.14V269.617C798.288 269.913 798.244 270.132 798.156 270.275C798.069 270.417 797.921 270.488 797.712 270.488H792.205V288.129C792.205 288.557 791.81 288.77 791.021 288.77H790.791ZM806.903 288.885C804.48 288.885 802.677 288.255 801.494 286.995C800.321 285.723 799.735 283.783 799.735 281.175C799.735 278.588 800.31 276.626 801.461 275.289C802.612 273.941 804.305 273.267 806.541 273.267C808.536 273.267 810.037 273.914 811.046 275.207C812.065 276.5 812.575 278.396 812.575 280.895C812.575 281.005 812.514 281.158 812.394 281.356C812.284 281.542 812.147 281.712 811.983 281.865C811.829 282.008 811.698 282.079 811.588 282.079H802.365C802.486 283.712 802.902 284.907 803.614 285.663C804.338 286.408 805.423 286.781 806.87 286.781C807.681 286.781 808.377 286.682 808.958 286.485C809.55 286.288 810.119 286.047 810.667 285.762C810.722 285.74 810.804 285.701 810.914 285.647C811.024 285.592 811.1 285.564 811.144 285.564C811.265 285.564 811.402 285.663 811.555 285.86C811.72 286.047 811.857 286.26 811.966 286.502C812.087 286.732 812.147 286.902 812.147 287.011C812.147 287.252 811.906 287.521 811.424 287.817C810.941 288.113 810.295 288.365 809.484 288.573C808.684 288.781 807.823 288.885 806.903 288.885ZM809.961 279.975C809.961 276.906 808.793 275.371 806.459 275.371C803.949 275.371 802.584 276.906 802.365 279.975H809.961ZM822.62 288.885C820.198 288.885 818.389 288.266 817.194 287.028C816.011 285.778 815.419 283.772 815.419 281.01C815.419 278.216 816.082 276.226 817.408 275.043C818.734 273.859 820.384 273.267 822.357 273.267C823.091 273.267 823.798 273.333 824.478 273.464C825.157 273.585 825.705 273.749 826.122 273.957C826.538 274.166 826.746 274.385 826.746 274.615C826.746 274.769 826.692 274.971 826.582 275.223C826.483 275.475 826.357 275.7 826.204 275.897C826.061 276.084 825.93 276.177 825.809 276.177C825.776 276.177 825.727 276.166 825.661 276.144C825.596 276.111 825.535 276.084 825.48 276.062C824.494 275.602 823.431 275.371 822.291 275.371C820.943 275.371 819.902 275.815 819.167 276.703C818.433 277.58 818.066 278.994 818.066 280.945C818.066 282.326 818.214 283.444 818.51 284.299C818.806 285.143 819.282 285.767 819.94 286.173C820.609 286.578 821.496 286.781 822.603 286.781C823.82 286.781 824.916 286.529 825.891 286.025C825.99 286.003 826.061 285.981 826.105 285.959C826.16 285.926 826.198 285.91 826.22 285.91C826.341 285.91 826.478 286.003 826.631 286.189C826.785 286.376 826.916 286.589 827.026 286.83C827.146 287.072 827.207 287.263 827.207 287.406C827.207 287.636 826.998 287.866 826.582 288.096C826.165 288.326 825.601 288.518 824.889 288.672C824.187 288.814 823.431 288.885 822.62 288.885ZM831.942 288.77C831.163 288.77 830.774 288.557 830.774 288.129V267.381C830.774 266.954 831.163 266.74 831.942 266.74H832.057C832.846 266.74 833.24 266.954 833.24 267.381V275.273C833.81 274.692 834.479 274.215 835.246 273.842C836.013 273.459 836.83 273.267 837.696 273.267C838.923 273.267 840.003 273.612 840.935 274.303C841.877 274.993 842.348 276.221 842.348 277.985V288.129C842.348 288.557 841.959 288.77 841.181 288.77H841.066C840.277 288.77 839.882 288.557 839.882 288.129V278.232C839.882 277.344 839.63 276.648 839.126 276.144C838.622 275.64 837.882 275.388 836.907 275.388C836.26 275.388 835.663 275.541 835.115 275.848C834.578 276.155 834.128 276.489 833.766 276.851C833.416 277.202 833.24 277.399 833.24 277.443V288.129C833.24 288.557 832.846 288.77 832.057 288.77H831.942ZM848.316 288.77C847.9 288.77 847.598 288.721 847.412 288.622C847.226 288.513 847.133 288.348 847.133 288.129V277.87C847.133 276.599 847.072 275.684 846.952 275.125C846.831 274.555 846.771 274.242 846.771 274.188C846.771 273.946 846.952 273.777 847.313 273.678C847.686 273.568 848.037 273.514 848.366 273.514C848.64 273.514 848.842 273.662 848.974 273.957C849.106 274.253 849.199 274.555 849.253 274.862C849.319 275.169 849.363 275.366 849.385 275.454C849.999 274.763 850.706 274.226 851.506 273.842C852.317 273.459 853.133 273.267 853.955 273.267C855.446 273.267 856.608 273.689 857.441 274.533C858.285 275.366 858.707 276.517 858.707 277.985V288.129C858.707 288.348 858.614 288.513 858.427 288.622C858.241 288.721 857.945 288.77 857.54 288.77H857.408C857.013 288.77 856.723 288.721 856.537 288.622C856.35 288.513 856.257 288.348 856.257 288.129V278.232C856.257 277.333 855.994 276.637 855.468 276.144C854.953 275.64 854.224 275.388 853.281 275.388C852.624 275.388 851.961 275.574 851.292 275.947C850.634 276.308 850.065 276.807 849.582 277.443V288.129C849.582 288.348 849.489 288.513 849.303 288.622C849.116 288.721 848.826 288.77 848.431 288.77H848.316ZM864.609 269.749C863.831 269.749 863.442 269.535 863.442 269.107V267.381C863.442 266.954 863.831 266.74 864.609 266.74H864.954C865.743 266.74 866.138 266.954 866.138 267.381V269.107C866.138 269.535 865.743 269.749 864.954 269.749H864.609ZM864.724 288.77C863.946 288.77 863.557 288.557 863.557 288.129V274.023C863.557 273.596 863.946 273.382 864.724 273.382H864.839C865.628 273.382 866.023 273.596 866.023 274.023V288.129C866.023 288.557 865.628 288.77 864.839 288.77H864.724ZM877.367 288.885C874.945 288.885 873.136 288.266 871.941 287.028C870.758 285.778 870.166 283.772 870.166 281.01C870.166 278.216 870.829 276.226 872.155 275.043C873.481 273.859 875.131 273.267 877.104 273.267C877.838 273.267 878.545 273.333 879.225 273.464C879.904 273.585 880.452 273.749 880.869 273.957C881.285 274.166 881.493 274.385 881.493 274.615C881.493 274.769 881.439 274.971 881.329 275.223C881.23 275.475 881.104 275.7 880.951 275.897C880.808 276.084 880.677 276.177 880.556 276.177C880.523 276.177 880.474 276.166 880.408 276.144C880.343 276.111 880.282 276.084 880.227 276.062C879.241 275.602 878.178 275.371 877.038 275.371C875.69 275.371 874.649 275.815 873.914 276.703C873.18 277.58 872.813 278.994 872.813 280.945C872.813 282.326 872.961 283.444 873.257 284.299C873.553 285.143 874.029 285.767 874.687 286.173C875.356 286.578 876.243 286.781 877.35 286.781C878.567 286.781 879.663 286.529 880.638 286.025C880.737 286.003 880.808 285.981 880.852 285.959C880.907 285.926 880.945 285.91 880.967 285.91C881.088 285.91 881.225 286.003 881.378 286.189C881.532 286.376 881.663 286.589 881.773 286.83C881.893 287.072 881.954 287.263 881.954 287.406C881.954 287.636 881.745 287.866 881.329 288.096C880.913 288.326 880.348 288.518 879.636 288.672C878.934 288.814 878.178 288.885 877.367 288.885ZM889.253 288.885C887.763 288.885 886.557 288.518 885.636 287.784C884.716 287.05 884.255 285.959 884.255 284.512C884.255 282.989 884.721 281.843 885.653 281.076C886.584 280.298 887.719 279.799 889.056 279.58C890.404 279.35 892.037 279.218 893.955 279.186V277.805C893.955 277.07 893.703 276.484 893.199 276.045C892.706 275.596 891.889 275.371 890.749 275.371C889.884 275.371 889.122 275.475 888.464 275.684C887.818 275.881 887.209 276.122 886.639 276.407C886.398 276.528 886.25 276.588 886.195 276.588C886.064 276.588 885.916 276.495 885.752 276.308C885.598 276.111 885.461 275.892 885.34 275.651C885.231 275.41 885.176 275.234 885.176 275.125C885.176 274.873 885.434 274.599 885.949 274.303C886.475 274.007 887.16 273.76 888.004 273.563C888.848 273.366 889.73 273.267 890.651 273.267C892.481 273.267 893.901 273.667 894.909 274.467C895.917 275.267 896.421 276.391 896.421 277.837V284.397C896.421 285.669 896.476 286.589 896.586 287.159C896.706 287.718 896.767 288.025 896.767 288.08C896.767 288.321 896.58 288.496 896.208 288.606C895.846 288.705 895.506 288.754 895.188 288.754C894.925 288.754 894.728 288.606 894.597 288.31C894.476 288.014 894.355 287.587 894.235 287.028L894.169 286.699C893.566 287.367 892.854 287.899 892.032 288.294C891.221 288.688 890.295 288.885 889.253 288.885ZM889.385 286.765C890.349 286.765 891.171 286.589 891.851 286.239C892.53 285.888 893.232 285.389 893.955 284.742V281.29C892.509 281.301 891.319 281.361 890.388 281.471C889.456 281.58 888.64 281.86 887.938 282.309C887.237 282.748 886.886 283.433 886.886 284.364C886.886 285.143 887.094 285.74 887.511 286.156C887.938 286.562 888.563 286.765 889.385 286.765ZM904.938 288.885C903.962 288.885 903.091 288.59 902.324 287.998C901.556 287.406 901.173 286.359 901.173 284.858V267.381C901.173 266.954 901.562 266.74 902.34 266.74H902.472C903.239 266.74 903.622 266.954 903.622 267.381V284.627C903.622 285.427 903.765 285.986 904.05 286.304C904.335 286.622 904.718 286.781 905.201 286.781C905.562 286.781 905.847 286.759 906.056 286.715C906.264 286.671 906.401 286.65 906.467 286.65C906.642 286.65 906.784 286.825 906.894 287.176C907.015 287.526 907.075 287.806 907.075 288.014C907.075 288.595 906.362 288.885 904.938 288.885ZM921.23 288.77C920.507 288.77 920.112 288.617 920.047 288.31L915.049 269.107C915.038 269.053 915.021 268.981 914.999 268.894C914.977 268.806 914.966 268.74 914.966 268.696C914.966 268.543 915.07 268.422 915.279 268.335C915.487 268.236 915.805 268.187 916.232 268.187H916.512C916.83 268.187 917.093 268.225 917.301 268.302C917.509 268.379 917.635 268.499 917.679 268.664L921.395 283.049C921.46 283.334 921.603 284.063 921.822 285.236C921.877 285.575 921.91 285.756 921.921 285.778C922.162 284.77 922.398 283.833 922.628 282.967L926.162 268.696C926.239 268.357 926.617 268.187 927.297 268.187H927.757C928.448 268.187 928.831 268.357 928.908 268.696L932.525 283.082C932.634 283.509 932.739 284.019 932.837 284.611C932.947 285.203 933.013 285.592 933.035 285.778C933.265 284.836 933.5 283.909 933.741 283L937.276 268.664C937.353 268.346 937.737 268.187 938.427 268.187H938.608C939.441 268.187 939.857 268.357 939.857 268.696C939.857 268.773 939.83 268.91 939.775 269.107L934.728 288.31C934.64 288.617 934.246 288.77 933.544 288.77H932.36C931.648 288.77 931.259 288.617 931.193 288.31L927.987 276.407L927.395 272.609L926.771 276.407L923.581 288.31C923.515 288.617 923.132 288.77 922.43 288.77H921.23ZM944.115 288.77C943.699 288.77 943.398 288.721 943.211 288.622C943.025 288.513 942.932 288.348 942.932 288.129V277.87C942.932 276.599 942.871 275.684 942.751 275.125C942.63 274.555 942.57 274.242 942.57 274.188C942.57 273.946 942.751 273.777 943.113 273.678C943.485 273.568 943.836 273.514 944.165 273.514C944.428 273.514 944.625 273.656 944.757 273.941C944.888 274.215 945.003 274.604 945.102 275.108L945.184 275.454C946.225 273.996 947.354 273.267 948.571 273.267C949.13 273.267 949.552 273.371 949.837 273.579C950.122 273.777 950.264 274.045 950.264 274.385C950.264 274.714 950.204 275.064 950.083 275.437C949.974 275.799 949.842 275.98 949.689 275.98C949.612 275.98 949.475 275.947 949.278 275.881C949.102 275.804 948.927 275.749 948.752 275.717C948.576 275.673 948.352 275.651 948.078 275.651C947.628 275.651 947.201 275.782 946.795 276.045C946.401 276.308 946.066 276.599 945.792 276.917C945.518 277.235 945.381 277.41 945.381 277.443V288.129C945.381 288.348 945.288 288.513 945.102 288.622C944.916 288.721 944.625 288.77 944.231 288.77H944.115ZM954.703 269.749C953.925 269.749 953.536 269.535 953.536 269.107V267.381C953.536 266.954 953.925 266.74 954.703 266.74H955.048C955.838 266.74 956.232 266.954 956.232 267.381V269.107C956.232 269.535 955.838 269.749 955.048 269.749H954.703ZM954.818 288.77C954.04 288.77 953.651 288.557 953.651 288.129V274.023C953.651 273.596 954.04 273.382 954.818 273.382H954.933C955.723 273.382 956.117 273.596 956.117 274.023V288.129C956.117 288.557 955.723 288.77 954.933 288.77H954.818ZM965.653 288.885C964.677 288.885 963.806 288.59 963.039 287.998C962.271 287.406 961.888 286.359 961.888 284.858V275.536H960.425C960.216 275.536 960.063 275.47 959.964 275.338C959.876 275.196 959.833 274.971 959.833 274.664V274.303C959.833 273.996 959.876 273.777 959.964 273.645C960.063 273.503 960.216 273.431 960.425 273.431H961.888L962.233 270.373C962.255 269.946 962.567 269.732 963.17 269.732H963.45C963.756 269.732 963.981 269.787 964.124 269.897C964.266 269.995 964.337 270.154 964.337 270.373V273.431H966.787C966.995 273.431 967.143 273.503 967.231 273.645C967.33 273.777 967.379 273.996 967.379 274.303V274.664C967.379 274.971 967.33 275.196 967.231 275.338C967.143 275.47 966.995 275.536 966.787 275.536H964.337V284.627C964.337 285.427 964.474 285.986 964.748 286.304C965.033 286.622 965.417 286.781 965.899 286.781C966.272 286.781 966.557 286.759 966.754 286.715C966.962 286.671 967.099 286.65 967.165 286.65C967.341 286.65 967.483 286.825 967.593 287.176C967.713 287.526 967.773 287.806 967.773 288.014C967.773 288.595 967.066 288.885 965.653 288.885ZM975.681 288.885C974.706 288.885 973.835 288.59 973.067 287.998C972.3 287.406 971.916 286.359 971.916 284.858V275.536H970.453C970.245 275.536 970.092 275.47 969.993 275.338C969.905 275.196 969.861 274.971 969.861 274.664V274.303C969.861 273.996 969.905 273.777 969.993 273.645C970.092 273.503 970.245 273.431 970.453 273.431H971.916L972.262 270.373C972.284 269.946 972.596 269.732 973.199 269.732H973.478C973.785 269.732 974.01 269.787 974.152 269.897C974.295 269.995 974.366 270.154 974.366 270.373V273.431H976.816C977.024 273.431 977.172 273.503 977.26 273.645C977.358 273.777 977.408 273.996 977.408 274.303V274.664C977.408 274.971 977.358 275.196 977.26 275.338C977.172 275.47 977.024 275.536 976.816 275.536H974.366V284.627C974.366 285.427 974.503 285.986 974.777 286.304C975.062 286.622 975.446 286.781 975.928 286.781C976.301 286.781 976.586 286.759 976.783 286.715C976.991 286.671 977.128 286.65 977.194 286.65C977.369 286.65 977.512 286.825 977.621 287.176C977.742 287.526 977.802 287.806 977.802 288.014C977.802 288.595 977.095 288.885 975.681 288.885ZM982.521 269.749C981.742 269.749 981.353 269.535 981.353 269.107V267.381C981.353 266.954 981.742 266.74 982.521 266.74H982.866C983.655 266.74 984.05 266.954 984.05 267.381V269.107C984.05 269.535 983.655 269.749 982.866 269.749H982.521ZM982.636 288.77C981.858 288.77 981.468 288.557 981.468 288.129V274.023C981.468 273.596 981.858 273.382 982.636 273.382H982.751C983.54 273.382 983.935 273.596 983.935 274.023V288.129C983.935 288.557 983.54 288.77 982.751 288.77H982.636ZM990.264 288.77C989.848 288.77 989.546 288.721 989.36 288.622C989.174 288.513 989.08 288.348 989.08 288.129V277.87C989.08 276.599 989.02 275.684 988.9 275.125C988.779 274.555 988.719 274.242 988.719 274.188C988.719 273.946 988.9 273.777 989.261 273.678C989.634 273.568 989.985 273.514 990.313 273.514C990.587 273.514 990.79 273.662 990.922 273.957C991.053 274.253 991.146 274.555 991.201 274.862C991.267 275.169 991.311 275.366 991.333 275.454C991.947 274.763 992.653 274.226 993.454 273.842C994.265 273.459 995.081 273.267 995.903 273.267C997.394 273.267 998.556 273.689 999.389 274.533C1000.23 275.366 1000.65 276.517 1000.65 277.985V288.129C1000.65 288.348 1000.56 288.513 1000.38 288.622C1000.19 288.721 999.893 288.77 999.487 288.77H999.356C998.961 288.77 998.671 288.721 998.484 288.622C998.298 288.513 998.205 288.348 998.205 288.129V278.232C998.205 277.333 997.942 276.637 997.416 276.144C996.901 275.64 996.172 275.388 995.229 275.388C994.572 275.388 993.908 275.574 993.24 275.947C992.582 276.308 992.012 276.807 991.53 277.443V288.129C991.53 288.348 991.437 288.513 991.251 288.622C991.064 288.721 990.774 288.77 990.379 288.77H990.264ZM1010.24 294.919C1008.38 294.919 1006.9 294.629 1005.82 294.048C1004.73 293.467 1004.19 292.552 1004.19 291.302C1004.19 290.447 1004.44 289.702 1004.93 289.066C1005.42 288.431 1006.06 287.954 1006.85 287.636L1006.89 287.57C1006.5 287.274 1006.21 286.935 1006 286.551C1005.8 286.167 1005.7 285.712 1005.7 285.186C1005.7 283.915 1006.25 282.896 1007.35 282.128C1006.52 281.734 1005.9 281.18 1005.47 280.468C1005.04 279.745 1004.83 278.933 1004.83 278.035C1004.83 277.136 1005.05 276.325 1005.49 275.602C1005.94 274.878 1006.6 274.308 1007.46 273.892C1008.33 273.475 1009.37 273.267 1010.58 273.267C1011.23 273.267 1011.81 273.322 1012.31 273.431H1017.62C1017.83 273.431 1017.98 273.503 1018.07 273.645C1018.16 273.777 1018.21 273.996 1018.21 274.303V274.664C1018.21 274.971 1018.16 275.196 1018.07 275.338C1017.98 275.47 1017.83 275.536 1017.62 275.536C1016.89 275.536 1016.21 275.508 1015.58 275.454L1015.55 275.503C1015.8 275.854 1015.99 276.248 1016.11 276.687C1016.24 277.114 1016.31 277.563 1016.31 278.035C1016.31 278.933 1016.08 279.745 1015.63 280.468C1015.19 281.191 1014.54 281.761 1013.68 282.178C1012.82 282.594 1011.78 282.802 1010.55 282.802C1009.63 282.835 1008.94 283.005 1008.46 283.312C1008 283.619 1007.77 284.123 1007.77 284.825C1007.77 285.34 1007.94 285.734 1008.27 286.008C1008.61 286.282 1009.03 286.474 1009.53 286.584C1010.04 286.693 1010.74 286.798 1011.64 286.896L1012.49 286.995C1013.4 287.115 1014.16 287.28 1014.78 287.488C1015.39 287.696 1015.89 288.042 1016.29 288.524C1016.7 289.006 1016.9 289.669 1016.9 290.513C1016.9 291.927 1016.33 293.012 1015.2 293.768C1014.08 294.536 1012.42 294.919 1010.24 294.919ZM1010.55 280.862C1011.63 280.862 1012.48 280.643 1013.12 280.205C1013.75 279.766 1014.07 279.049 1014.07 278.051C1014.07 276.166 1012.9 275.223 1010.55 275.223C1008.24 275.223 1007.08 276.166 1007.08 278.051C1007.08 279.049 1007.4 279.766 1008.02 280.205C1008.66 280.643 1009.5 280.862 1010.55 280.862ZM1010.55 292.93C1011.91 292.93 1012.92 292.749 1013.58 292.387C1014.23 292.037 1014.56 291.5 1014.56 290.776C1014.56 290.305 1014.39 289.938 1014.04 289.675C1013.69 289.423 1013.25 289.242 1012.74 289.132C1012.23 289.033 1011.57 288.94 1010.73 288.853C1010.16 288.787 1009.69 288.727 1009.32 288.672C1008.96 288.617 1008.62 288.54 1008.32 288.442C1007.02 288.99 1006.38 289.784 1006.38 290.825C1006.38 292.228 1007.77 292.93 1010.55 292.93Z" fill="black"/>
<path d="M151.397 279.856C152.027 279.405 152.173 278.529 151.722 277.899L144.376 267.629C143.925 266.999 143.049 266.854 142.419 267.304C141.789 267.755 141.643 268.631 142.094 269.262L148.624 278.39L139.495 284.92C138.865 285.371 138.72 286.247 139.17 286.877C139.621 287.507 140.498 287.653 141.128 287.202L151.397 279.856ZM150.089 51.9972C84.5321 76.5222 56.6706 128.863 59.2172 177.485C61.7614 226.062 94.6847 270.861 150.351 280.099L150.811 277.331C96.5812 268.331 64.5021 224.745 62.0192 177.338C59.5387 129.977 86.6251 78.735 151.072 54.6251L150.089 51.9972Z" fill="black"/>
<path d="M1045.97 50.8831C1045.34 51.3339 1045.2 52.2102 1045.65 52.8404L1052.99 63.1098C1053.44 63.74 1054.32 63.8854 1054.95 63.4346C1055.58 62.9838 1055.73 62.1075 1055.28 61.4773L1048.75 52.349L1057.87 45.8192C1058.5 45.3684 1058.65 44.4921 1058.2 43.8619C1057.75 43.2317 1056.87 43.0863 1056.24 43.5371L1045.97 50.8831ZM1047.28 278.742C1112.84 254.217 1140.7 201.876 1138.15 153.254C1135.61 104.677 1102.69 59.8784 1047.02 50.6402L1046.56 53.4082C1100.79 62.4079 1132.87 105.994 1135.35 153.401C1137.83 200.762 1110.74 252.004 1046.3 276.114L1047.28 278.742Z" fill="black"/>
<path d="M432.02 52.0028C431.473 52.551 431.473 53.4393 432.021 53.9868L440.956 62.9089C441.504 63.4564 442.392 63.4558 442.94 62.9076C443.487 62.3593 443.487 61.471 442.938 60.9235L434.997 52.9928L442.928 45.0512C443.475 44.503 443.475 43.6147 442.926 43.0672C442.378 42.5197 441.49 42.5203 440.942 43.0685L432.02 52.0028ZM875.45 51.2901L433.012 51.5912L433.014 54.3971L875.452 54.0959L875.45 51.2901Z" fill="black"/>
<path d="M750.204 279.857C750.752 279.31 750.752 278.421 750.204 277.873L741.276 268.945C740.728 268.397 739.839 268.397 739.292 268.945C738.744 269.493 738.744 270.381 739.292 270.929L747.228 278.865L739.292 286.802C738.744 287.35 738.744 288.238 739.292 288.786C739.839 289.334 740.728 289.334 741.276 288.786L750.204 279.857ZM306.773 280.268H749.212V277.463H306.773V280.268Z" fill="black"/>
</svg>
